<svg xmlns="http://www.w3.org/2000/svg" viewBox="0 0 1536 1024" role="img" width="1536" height="1024">
  <title>David Rittenhouse — Astronomer and Instrument Maker of 1778</title>
  <defs>
    <radialGradient id="crt" cx="50%" cy="50%" r="70%">
      <stop offset="0%" stop-color="#1a0a2e" />
      <stop offset="100%" stop-color="#0a0010" />
    </radialGradient>
    <radialGradient id="eclipseGlow" cx="50%" cy="50%" r="50%">
      <stop offset="0%" stop-color="#ffdd44" stop-opacity="0.6" />
      <stop offset="60%" stop-color="#ff8800" stop-opacity="0.2" />
      <stop offset="100%" stop-color="#ff8800" stop-opacity="0" />
    </radialGradient>
    <radialGradient id="moonGrad" cx="50%" cy="50%" r="50%">
      <stop offset="0%" stop-color="#2a1a4a" />
      <stop offset="100%" stop-color="#110820" />
    </radialGradient>
    <filter id="scanlines">
      <feTurbulence type="fractalNoise" baseFrequency="0 0.5" numOctaves="1" result="noise" />
      <feColorMatrix type="saturate" values="0" in="noise" result="grey" />
      <feBlend in="SourceGraphic" in2="grey" mode="multiply" />
    </filter>
  </defs>

  
  <rect width="1536" height="1024" fill="url(#crt)" />

  
  <rect width="1536" height="1024" fill="none" stroke="#6600ff" stroke-width="0" opacity="0.05" />

  
  <g opacity="0.08">
    <rect x="0" y="0" width="1536" height="2" fill="#8844ff" />
    <rect x="0" y="4" width="1536" height="2" fill="#8844ff" />
    <rect x="0" y="8" width="1536" height="2" fill="#8844ff" />
    <rect x="0" y="12" width="1536" height="2" fill="#8844ff" />
    <rect x="0" y="16" width="1536" height="2" fill="#8844ff" />
    <rect x="0" y="20" width="1536" height="2" fill="#8844ff" />
    <rect x="0" y="24" width="1536" height="2" fill="#8844ff" />
    <rect x="0" y="28" width="1536" height="2" fill="#8844ff" />
    <rect x="0" y="32" width="1536" height="2" fill="#8844ff" />
    <rect x="0" y="36" width="1536" height="2" fill="#8844ff" />
    <rect x="0" y="40" width="1536" height="2" fill="#8844ff" />
    <rect x="0" y="44" width="1536" height="2" fill="#8844ff" />
    <rect x="0" y="48" width="1536" height="2" fill="#8844ff" />
    <rect x="0" y="52" width="1536" height="2" fill="#8844ff" />
    <rect x="0" y="56" width="1536" height="2" fill="#8844ff" />
    <rect x="0" y="60" width="1536" height="2" fill="#8844ff" />
    <rect x="0" y="64" width="1536" height="2" fill="#8844ff" />
    <rect x="0" y="68" width="1536" height="2" fill="#8844ff" />
    <rect x="0" y="72" width="1536" height="2" fill="#8844ff" />
    <rect x="0" y="76" width="1536" height="2" fill="#8844ff" />
    <rect x="0" y="80" width="1536" height="2" fill="#8844ff" />
    <rect x="0" y="84" width="1536" height="2" fill="#8844ff" />
    <rect x="0" y="88" width="1536" height="2" fill="#8844ff" />
    <rect x="0" y="92" width="1536" height="2" fill="#8844ff" />
    <rect x="0" y="96" width="1536" height="2" fill="#8844ff" />
    <rect x="0" y="100" width="1536" height="2" fill="#8844ff" />
    <rect x="0" y="104" width="1536" height="2" fill="#8844ff" />
    <rect x="0" y="108" width="1536" height="2" fill="#8844ff" />
    <rect x="0" y="112" width="1536" height="2" fill="#8844ff" />
    <rect x="0" y="116" width="1536" height="2" fill="#8844ff" />
    <rect x="0" y="120" width="1536" height="2" fill="#8844ff" />
    <rect x="0" y="124" width="1536" height="2" fill="#8844ff" />
    <rect x="0" y="128" width="1536" height="2" fill="#8844ff" />
    <rect x="0" y="132" width="1536" height="2" fill="#8844ff" />
    <rect x="0" y="136" width="1536" height="2" fill="#8844ff" />
    <rect x="0" y="140" width="1536" height="2" fill="#8844ff" />
    <rect x="0" y="144" width="1536" height="2" fill="#8844ff" />
    <rect x="0" y="148" width="1536" height="2" fill="#8844ff" />
    <rect x="0" y="152" width="1536" height="2" fill="#8844ff" />
    <rect x="0" y="156" width="1536" height="2" fill="#8844ff" />
    <rect x="0" y="160" width="1536" height="2" fill="#8844ff" />
    <rect x="0" y="164" width="1536" height="2" fill="#8844ff" />
    <rect x="0" y="168" width="1536" height="2" fill="#8844ff" />
    <rect x="0" y="172" width="1536" height="2" fill="#8844ff" />
    <rect x="0" y="176" width="1536" height="2" fill="#8844ff" />
    <rect x="0" y="180" width="1536" height="2" fill="#8844ff" />
    <rect x="0" y="184" width="1536" height="2" fill="#8844ff" />
    <rect x="0" y="188" width="1536" height="2" fill="#8844ff" />
    <rect x="0" y="192" width="1536" height="2" fill="#8844ff" />
    <rect x="0" y="196" width="1536" height="2" fill="#8844ff" />
    <rect x="0" y="200" width="1536" height="2" fill="#8844ff" />
    <rect x="0" y="204" width="1536" height="2" fill="#8844ff" />
    <rect x="0" y="208" width="1536" height="2" fill="#8844ff" />
    <rect x="0" y="212" width="1536" height="2" fill="#8844ff" />
    <rect x="0" y="216" width="1536" height="2" fill="#8844ff" />
    <rect x="0" y="220" width="1536" height="2" fill="#8844ff" />
    <rect x="0" y="224" width="1536" height="2" fill="#8844ff" />
    <rect x="0" y="228" width="1536" height="2" fill="#8844ff" />
    <rect x="0" y="232" width="1536" height="2" fill="#8844ff" />
    <rect x="0" y="236" width="1536" height="2" fill="#8844ff" />
    <rect x="0" y="240" width="1536" height="2" fill="#8844ff" />
    <rect x="0" y="244" width="1536" height="2" fill="#8844ff" />
    <rect x="0" y="248" width="1536" height="2" fill="#8844ff" />
    <rect x="0" y="252" width="1536" height="2" fill="#8844ff" />
    <rect x="0" y="256" width="1536" height="2" fill="#8844ff" />
    <rect x="0" y="260" width="1536" height="2" fill="#8844ff" />
    <rect x="0" y="264" width="1536" height="2" fill="#8844ff" />
    <rect x="0" y="268" width="1536" height="2" fill="#8844ff" />
    <rect x="0" y="272" width="1536" height="2" fill="#8844ff" />
    <rect x="0" y="276" width="1536" height="2" fill="#8844ff" />
    <rect x="0" y="280" width="1536" height="2" fill="#8844ff" />
    <rect x="0" y="284" width="1536" height="2" fill="#8844ff" />
    <rect x="0" y="288" width="1536" height="2" fill="#8844ff" />
    <rect x="0" y="292" width="1536" height="2" fill="#8844ff" />
    <rect x="0" y="296" width="1536" height="2" fill="#8844ff" />
    <rect x="0" y="300" width="1536" height="2" fill="#8844ff" />
    <rect x="0" y="304" width="1536" height="2" fill="#8844ff" />
    <rect x="0" y="308" width="1536" height="2" fill="#8844ff" />
    <rect x="0" y="312" width="1536" height="2" fill="#8844ff" />
    <rect x="0" y="316" width="1536" height="2" fill="#8844ff" />
    <rect x="0" y="320" width="1536" height="2" fill="#8844ff" />
    <rect x="0" y="324" width="1536" height="2" fill="#8844ff" />
    <rect x="0" y="328" width="1536" height="2" fill="#8844ff" />
    <rect x="0" y="332" width="1536" height="2" fill="#8844ff" />
    <rect x="0" y="336" width="1536" height="2" fill="#8844ff" />
    <rect x="0" y="340" width="1536" height="2" fill="#8844ff" />
    <rect x="0" y="344" width="1536" height="2" fill="#8844ff" />
    <rect x="0" y="348" width="1536" height="2" fill="#8844ff" />
    <rect x="0" y="352" width="1536" height="2" fill="#8844ff" />
    <rect x="0" y="356" width="1536" height="2" fill="#8844ff" />
    <rect x="0" y="360" width="1536" height="2" fill="#8844ff" />
    <rect x="0" y="364" width="1536" height="2" fill="#8844ff" />
    <rect x="0" y="368" width="1536" height="2" fill="#8844ff" />
    <rect x="0" y="372" width="1536" height="2" fill="#8844ff" />
    <rect x="0" y="376" width="1536" height="2" fill="#8844ff" />
    <rect x="0" y="380" width="1536" height="2" fill="#8844ff" />
    <rect x="0" y="384" width="1536" height="2" fill="#8844ff" />
    <rect x="0" y="388" width="1536" height="2" fill="#8844ff" />
    <rect x="0" y="392" width="1536" height="2" fill="#8844ff" />
    <rect x="0" y="396" width="1536" height="2" fill="#8844ff" />
    <rect x="0" y="400" width="1536" height="2" fill="#8844ff" />
    <rect x="0" y="404" width="1536" height="2" fill="#8844ff" />
    <rect x="0" y="408" width="1536" height="2" fill="#8844ff" />
    <rect x="0" y="412" width="1536" height="2" fill="#8844ff" />
    <rect x="0" y="416" width="1536" height="2" fill="#8844ff" />
    <rect x="0" y="420" width="1536" height="2" fill="#8844ff" />
    <rect x="0" y="424" width="1536" height="2" fill="#8844ff" />
    <rect x="0" y="428" width="1536" height="2" fill="#8844ff" />
    <rect x="0" y="432" width="1536" height="2" fill="#8844ff" />
    <rect x="0" y="436" width="1536" height="2" fill="#8844ff" />
    <rect x="0" y="440" width="1536" height="2" fill="#8844ff" />
    <rect x="0" y="444" width="1536" height="2" fill="#8844ff" />
    <rect x="0" y="448" width="1536" height="2" fill="#8844ff" />
    <rect x="0" y="452" width="1536" height="2" fill="#8844ff" />
    <rect x="0" y="456" width="1536" height="2" fill="#8844ff" />
    <rect x="0" y="460" width="1536" height="2" fill="#8844ff" />
    <rect x="0" y="464" width="1536" height="2" fill="#8844ff" />
    <rect x="0" y="468" width="1536" height="2" fill="#8844ff" />
    <rect x="0" y="472" width="1536" height="2" fill="#8844ff" />
    <rect x="0" y="476" width="1536" height="2" fill="#8844ff" />
    <rect x="0" y="480" width="1536" height="2" fill="#8844ff" />
    <rect x="0" y="484" width="1536" height="2" fill="#8844ff" />
    <rect x="0" y="488" width="1536" height="2" fill="#8844ff" />
    <rect x="0" y="492" width="1536" height="2" fill="#8844ff" />
    <rect x="0" y="496" width="1536" height="2" fill="#8844ff" />
    <rect x="0" y="500" width="1536" height="2" fill="#8844ff" />
    <rect x="0" y="504" width="1536" height="2" fill="#8844ff" />
    <rect x="0" y="508" width="1536" height="2" fill="#8844ff" />
    <rect x="0" y="512" width="1536" height="2" fill="#8844ff" />
    <rect x="0" y="516" width="1536" height="2" fill="#8844ff" />
    <rect x="0" y="520" width="1536" height="2" fill="#8844ff" />
    <rect x="0" y="524" width="1536" height="2" fill="#8844ff" />
    <rect x="0" y="528" width="1536" height="2" fill="#8844ff" />
    <rect x="0" y="532" width="1536" height="2" fill="#8844ff" />
    <rect x="0" y="536" width="1536" height="2" fill="#8844ff" />
    <rect x="0" y="540" width="1536" height="2" fill="#8844ff" />
    <rect x="0" y="544" width="1536" height="2" fill="#8844ff" />
    <rect x="0" y="548" width="1536" height="2" fill="#8844ff" />
    <rect x="0" y="552" width="1536" height="2" fill="#8844ff" />
    <rect x="0" y="556" width="1536" height="2" fill="#8844ff" />
    <rect x="0" y="560" width="1536" height="2" fill="#8844ff" />
    <rect x="0" y="564" width="1536" height="2" fill="#8844ff" />
    <rect x="0" y="568" width="1536" height="2" fill="#8844ff" />
    <rect x="0" y="572" width="1536" height="2" fill="#8844ff" />
    <rect x="0" y="576" width="1536" height="2" fill="#8844ff" />
    <rect x="0" y="580" width="1536" height="2" fill="#8844ff" />
    <rect x="0" y="584" width="1536" height="2" fill="#8844ff" />
    <rect x="0" y="588" width="1536" height="2" fill="#8844ff" />
    <rect x="0" y="592" width="1536" height="2" fill="#8844ff" />
    <rect x="0" y="596" width="1536" height="2" fill="#8844ff" />
    <rect x="0" y="600" width="1536" height="2" fill="#8844ff" />
    <rect x="0" y="604" width="1536" height="2" fill="#8844ff" />
    <rect x="0" y="608" width="1536" height="2" fill="#8844ff" />
    <rect x="0" y="612" width="1536" height="2" fill="#8844ff" />
    <rect x="0" y="616" width="1536" height="2" fill="#8844ff" />
    <rect x="0" y="620" width="1536" height="2" fill="#8844ff" />
    <rect x="0" y="624" width="1536" height="2" fill="#8844ff" />
    <rect x="0" y="628" width="1536" height="2" fill="#8844ff" />
    <rect x="0" y="632" width="1536" height="2" fill="#8844ff" />
    <rect x="0" y="636" width="1536" height="2" fill="#8844ff" />
    <rect x="0" y="640" width="1536" height="2" fill="#8844ff" />
    <rect x="0" y="644" width="1536" height="2" fill="#8844ff" />
    <rect x="0" y="648" width="1536" height="2" fill="#8844ff" />
    <rect x="0" y="652" width="1536" height="2" fill="#8844ff" />
    <rect x="0" y="656" width="1536" height="2" fill="#8844ff" />
    <rect x="0" y="660" width="1536" height="2" fill="#8844ff" />
    <rect x="0" y="664" width="1536" height="2" fill="#8844ff" />
    <rect x="0" y="668" width="1536" height="2" fill="#8844ff" />
    <rect x="0" y="672" width="1536" height="2" fill="#8844ff" />
    <rect x="0" y="676" width="1536" height="2" fill="#8844ff" />
    <rect x="0" y="680" width="1536" height="2" fill="#8844ff" />
    <rect x="0" y="684" width="1536" height="2" fill="#8844ff" />
    <rect x="0" y="688" width="1536" height="2" fill="#8844ff" />
    <rect x="0" y="692" width="1536" height="2" fill="#8844ff" />
    <rect x="0" y="696" width="1536" height="2" fill="#8844ff" />
    <rect x="0" y="700" width="1536" height="2" fill="#8844ff" />
    <rect x="0" y="704" width="1536" height="2" fill="#8844ff" />
    <rect x="0" y="708" width="1536" height="2" fill="#8844ff" />
    <rect x="0" y="712" width="1536" height="2" fill="#8844ff" />
    <rect x="0" y="716" width="1536" height="2" fill="#8844ff" />
    <rect x="0" y="720" width="1536" height="2" fill="#8844ff" />
    <rect x="0" y="724" width="1536" height="2" fill="#8844ff" />
    <rect x="0" y="728" width="1536" height="2" fill="#8844ff" />
    <rect x="0" y="732" width="1536" height="2" fill="#8844ff" />
    <rect x="0" y="736" width="1536" height="2" fill="#8844ff" />
    <rect x="0" y="740" width="1536" height="2" fill="#8844ff" />
    <rect x="0" y="744" width="1536" height="2" fill="#8844ff" />
    <rect x="0" y="748" width="1536" height="2" fill="#8844ff" />
    <rect x="0" y="752" width="1536" height="2" fill="#8844ff" />
    <rect x="0" y="756" width="1536" height="2" fill="#8844ff" />
    <rect x="0" y="760" width="1536" height="2" fill="#8844ff" />
    <rect x="0" y="764" width="1536" height="2" fill="#8844ff" />
    <rect x="0" y="768" width="1536" height="2" fill="#8844ff" />
    <rect x="0" y="772" width="1536" height="2" fill="#8844ff" />
    <rect x="0" y="776" width="1536" height="2" fill="#8844ff" />
    <rect x="0" y="780" width="1536" height="2" fill="#8844ff" />
    <rect x="0" y="784" width="1536" height="2" fill="#8844ff" />
    <rect x="0" y="788" width="1536" height="2" fill="#8844ff" />
    <rect x="0" y="792" width="1536" height="2" fill="#8844ff" />
    <rect x="0" y="796" width="1536" height="2" fill="#8844ff" />
    <rect x="0" y="800" width="1536" height="2" fill="#8844ff" />
    <rect x="0" y="804" width="1536" height="2" fill="#8844ff" />
    <rect x="0" y="808" width="1536" height="2" fill="#8844ff" />
    <rect x="0" y="812" width="1536" height="2" fill="#8844ff" />
    <rect x="0" y="816" width="1536" height="2" fill="#8844ff" />
    <rect x="0" y="820" width="1536" height="2" fill="#8844ff" />
    <rect x="0" y="824" width="1536" height="2" fill="#8844ff" />
    <rect x="0" y="828" width="1536" height="2" fill="#8844ff" />
    <rect x="0" y="832" width="1536" height="2" fill="#8844ff" />
    <rect x="0" y="836" width="1536" height="2" fill="#8844ff" />
    <rect x="0" y="840" width="1536" height="2" fill="#8844ff" />
    <rect x="0" y="844" width="1536" height="2" fill="#8844ff" />
    <rect x="0" y="848" width="1536" height="2" fill="#8844ff" />
    <rect x="0" y="852" width="1536" height="2" fill="#8844ff" />
    <rect x="0" y="856" width="1536" height="2" fill="#8844ff" />
    <rect x="0" y="860" width="1536" height="2" fill="#8844ff" />
    <rect x="0" y="864" width="1536" height="2" fill="#8844ff" />
    <rect x="0" y="868" width="1536" height="2" fill="#8844ff" />
    <rect x="0" y="872" width="1536" height="2" fill="#8844ff" />
    <rect x="0" y="876" width="1536" height="2" fill="#8844ff" />
    <rect x="0" y="880" width="1536" height="2" fill="#8844ff" />
    <rect x="0" y="884" width="1536" height="2" fill="#8844ff" />
    <rect x="0" y="888" width="1536" height="2" fill="#8844ff" />
    <rect x="0" y="892" width="1536" height="2" fill="#8844ff" />
    <rect x="0" y="896" width="1536" height="2" fill="#8844ff" />
    <rect x="0" y="900" width="1536" height="2" fill="#8844ff" />
    <rect x="0" y="904" width="1536" height="2" fill="#8844ff" />
    <rect x="0" y="908" width="1536" height="2" fill="#8844ff" />
    <rect x="0" y="912" width="1536" height="2" fill="#8844ff" />
    <rect x="0" y="916" width="1536" height="2" fill="#8844ff" />
    <rect x="0" y="920" width="1536" height="2" fill="#8844ff" />
    <rect x="0" y="924" width="1536" height="2" fill="#8844ff" />
    <rect x="0" y="928" width="1536" height="2" fill="#8844ff" />
    <rect x="0" y="932" width="1536" height="2" fill="#8844ff" />
    <rect x="0" y="936" width="1536" height="2" fill="#8844ff" />
    <rect x="0" y="940" width="1536" height="2" fill="#8844ff" />
    <rect x="0" y="944" width="1536" height="2" fill="#8844ff" />
    <rect x="0" y="948" width="1536" height="2" fill="#8844ff" />
    <rect x="0" y="952" width="1536" height="2" fill="#8844ff" />
    <rect x="0" y="956" width="1536" height="2" fill="#8844ff" />
    <rect x="0" y="960" width="1536" height="2" fill="#8844ff" />
    <rect x="0" y="964" width="1536" height="2" fill="#8844ff" />
    <rect x="0" y="968" width="1536" height="2" fill="#8844ff" />
    <rect x="0" y="972" width="1536" height="2" fill="#8844ff" />
    <rect x="0" y="976" width="1536" height="2" fill="#8844ff" />
    <rect x="0" y="980" width="1536" height="2" fill="#8844ff" />
    <rect x="0" y="984" width="1536" height="2" fill="#8844ff" />
    <rect x="0" y="988" width="1536" height="2" fill="#8844ff" />
    <rect x="0" y="992" width="1536" height="2" fill="#8844ff" />
    <rect x="0" y="996" width="1536" height="2" fill="#8844ff" />
    <rect x="0" y="1000" width="1536" height="2" fill="#8844ff" />
    <rect x="0" y="1004" width="1536" height="2" fill="#8844ff" />
    <rect x="0" y="1008" width="1536" height="2" fill="#8844ff" />
    <rect x="0" y="1012" width="1536" height="2" fill="#8844ff" />
    <rect x="0" y="1016" width="1536" height="2" fill="#8844ff" />
    <rect x="0" y="1020" width="1536" height="2" fill="#8844ff" />
  </g>

  
  <rect x="80" y="60" width="4" height="4" fill="#ffffff" />
  <rect x="160" y="120" width="4" height="4" fill="#aaaaff" />
  <rect x="240" y="45" width="6" height="6" fill="#ffffff" />
  <rect x="320" y="90" width="4" height="4" fill="#ffaaff" />
  <rect x="420" y="55" width="4" height="4" fill="#ffffff" />
  <rect x="500" y="130" width="4" height="4" fill="#aaaaff" />
  <rect x="600" y="40" width="6" height="6" fill="#ffffff" />
  <rect x="700" y="100" width="4" height="4" fill="#ffaaff" />
  <rect x="800" y="70" width="4" height="4" fill="#ffffff" />
  <rect x="900" y="50" width="6" height="6" fill="#aaaaff" />
  <rect x="1000" y="110" width="4" height="4" fill="#ffffff" />
  <rect x="1100" y="60" width="4" height="4" fill="#ffaaff" />
  <rect x="1200" y="80" width="6" height="6" fill="#ffffff" />
  <rect x="1300" y="40" width="4" height="4" fill="#aaaaff" />
  <rect x="1400" y="95" width="4" height="4" fill="#ffffff" />
  <rect x="1460" y="55" width="6" height="6" fill="#ffffff" />
  <rect x="60" y="200" width="4" height="4" fill="#aaaaff" />
  <rect x="150" y="300" width="4" height="4" fill="#ffffff" />
  <rect x="50" y="400" width="6" height="6" fill="#ffaaff" />
  <rect x="100" y="500" width="4" height="4" fill="#ffffff" />
  <rect x="1450" y="300" width="4" height="4" fill="#aaaaff" />
  <rect x="1480" y="450" width="6" height="6" fill="#ffffff" />
  <rect x="1500" y="600" width="4" height="4" fill="#ffaaff" />
  <rect x="1420" y="700" width="4" height="4" fill="#ffffff" />
  <rect x="70" y="700" width="4" height="4" fill="#aaaaff" />
  <rect x="120" y="800" width="6" height="6" fill="#ffffff" />
  <rect x="1440" y="820" width="4" height="4" fill="#ffffff" />
  <rect x="200" y="950" width="4" height="4" fill="#aaaaff" />
  <rect x="1350" y="950" width="6" height="6" fill="#ffffff" />
  <rect x="700" y="950" width="4" height="4" fill="#ffaaff" />
  <rect x="900" y="970" width="4" height="4" fill="#aaaaff" />

  
  <circle cx="1100" cy="420" r="260" fill="url(#eclipseGlow)" />

  
  
  <rect x="1090" y="120" width="20" height="48" fill="#ffdd44" opacity="0.7" />
  <rect x="1050" y="140" width="16" height="32" fill="#ffcc22" opacity="0.5" />
  <rect x="1130" y="135" width="16" height="36" fill="#ffcc22" opacity="0.5" />

  <rect x="1090" y="680" width="20" height="48" fill="#ffdd44" opacity="0.7" />
  <rect x="1050" y="670" width="16" height="32" fill="#ffcc22" opacity="0.5" />
  <rect x="1130" y="675" width="16" height="32" fill="#ffcc22" opacity="0.5" />

  <rect x="790" y="410" width="48" height="20" fill="#ffdd44" opacity="0.7" />
  <rect x="810" y="380" width="32" height="16" fill="#ffcc22" opacity="0.5" />
  <rect x="810" y="445" width="32" height="16" fill="#ffcc22" opacity="0.5" />

  <rect x="1358" y="410" width="48" height="20" fill="#ffdd44" opacity="0.7" />
  <rect x="1348" y="380" width="32" height="16" fill="#ffcc22" opacity="0.5" />
  <rect x="1348" y="445" width="32" height="16" fill="#ffcc22" opacity="0.5" />

  
  <rect x="880" y="215" width="16" height="40" fill="#ffcc22" opacity="0.5" transform="rotate(-45 888 235)" />
  <rect x="1280" y="215" width="16" height="40" fill="#ffcc22" opacity="0.5" transform="rotate(45 1288 235)" />
  <rect x="880" y="585" width="16" height="40" fill="#ffcc22" opacity="0.5" transform="rotate(45 888 605)" />
  <rect x="1280" y="585" width="16" height="40" fill="#ffcc22" opacity="0.5" transform="rotate(-45 1288 605)" />

  
  
  <circle cx="1100" cy="420" r="200" fill="#ffdd44" />
  
  <rect x="960" y="280" width="280" height="280" fill="#ffee55" rx="0" />
  <circle cx="1100" cy="420" r="200" fill="#ffdd44" />
  
  <circle cx="1100" cy="420" r="160" fill="#ffee77" />
  <circle cx="1100" cy="420" r="120" fill="#ffff99" />

  
  <circle cx="980" cy="340" r="190" fill="url(#moonGrad)" />
  
  <rect x="900" y="280" width="16" height="16" fill="#1a0830" opacity="0.6" />
  <rect x="940" y="300" width="12" height="12" fill="#1a0830" opacity="0.4" />
  <rect x="870" y="330" width="20" height="20" fill="#1a0830" opacity="0.5" />
  <rect x="950" y="380" width="16" height="16" fill="#1a0830" opacity="0.4" />
  <rect x="1010" y="260" width="12" height="12" fill="#1a0830" opacity="0.3" />

  
  
  <rect x="180" y="700" width="8" height="200" fill="#44cc88" transform="rotate(-15 184 700)" />
  <rect x="280" y="700" width="8" height="200" fill="#44cc88" />
  <rect x="375" y="700" width="8" height="200" fill="#44cc88" transform="rotate(15 379 700)" />

  
  
  <rect x="160" y="570" width="300" height="40" fill="#44cc88" rx="0" />
  <rect x="164" y="574" width="292" height="32" fill="#22aa66" rx="0" />
  
  <rect x="452" y="560" width="24" height="60" fill="#66ddaa" />
  <rect x="464" y="552" width="16" height="76" fill="#88ffcc" />
  
  <rect x="140" y="576" width="28" height="28" fill="#33bb77" />
  <rect x="128" y="580" width="20" height="20" fill="#55dd99" />
  
  <rect x="260" y="608" width="32" height="20" fill="#33bb77" />
  <rect x="268" y="614" width="16" height="8" fill="#55dd99" />
  
  <rect x="252" y="605" width="48" height="12" fill="#22aa66" />
  <rect x="256" y="600" width="40" height="8" fill="#44cc88" />

  
  
  <rect x="100" y="750" width="120" height="160" fill="#cc8833" rx="0" />
  <rect x="104" y="754" width="112" height="152" fill="#aa6622" rx="0" />
  
  <rect x="114" y="764" width="92" height="92" fill="#eeddaa" rx="0" />
  <rect x="118" y="768" width="84" height="84" fill="#ffeecc" rx="0" />
  
  <rect x="158" y="772" width="4" height="36" fill="#221100" />
  <rect x="158" y="808" width="28" height="4" fill="#221100" />
  
  <rect x="158" y="770" width="4" height="8" fill="#554433" />
  <rect x="158" y="842" width="4" height="8" fill="#554433" />
  <rect x="120" y="806" width="8" height="4" fill="#554433" />
  <rect x="194" y="806" width="8" height="4" fill="#554433" />
  
  <rect x="148" y="742" width="24" height="16" fill="#cc8833" />
  <rect x="152" y="736" width="16" height="10" fill="#dd9944" />
  
  <rect x="108" y="896" width="104" height="14" fill="#cc8833" />

  
  <rect x="60" y="140" width="4" height="4" fill="#aaaaff" />
  <rect x="100" y="170" width="4" height="4" fill="#aaaaff" />
  <rect x="130" y="155" width="4" height="4" fill="#aaaaff" />
  
  <rect x="60" y="141" width="42" height="2" fill="#6666cc" opacity="0.6" />
  <rect x="100" y="158" width="32" height="2" fill="#6666cc" opacity="0.6" transform="rotate(-10 116 159)" />

  
  <rect x="600" y="800" width="2" height="160" fill="#3355cc" opacity="0.4" />
  <rect x="640" y="800" width="2" height="160" fill="#3355cc" opacity="0.3" />
  <rect x="680" y="800" width="2" height="160" fill="#3355cc" opacity="0.3" />
  <rect x="720" y="800" width="2" height="160" fill="#3355cc" opacity="0.4" />
  <rect x="760" y="800" width="2" height="160" fill="#3355cc" opacity="0.3" />
  <rect x="800" y="800" width="2" height="160" fill="#3355cc" opacity="0.3" />
  <rect x="840" y="800" width="2" height="160" fill="#3355cc" opacity="0.4" />
  <rect x="560" y="840" width="300" height="2" fill="#3355cc" opacity="0.4" />
  <rect x="560" y="880" width="300" height="2" fill="#3355cc" opacity="0.3" />
  <rect x="560" y="920" width="300" height="2" fill="#3355cc" opacity="0.3" />

  
  <path d="M 600 850 A 150 150 0 0 1 850 850" fill="none" stroke="#00ffcc" stroke-width="4" opacity="0.5" />
  <path d="M 610 850 A 140 140 0 0 1 840 850" fill="none" stroke="#00ffcc" stroke-width="2" opacity="0.3" />
  
  <rect x="720" y="702" width="4" height="16" fill="#00ffcc" opacity="0.6" />
  <rect x="598" y="748" width="16" height="4" fill="#00ffcc" opacity="0.6" />
  <rect x="846" y="748" width="16" height="4" fill="#00ffcc" opacity="0.6" />

  
  <rect x="560" y="820" width="4" height="24" fill="#00ffcc" />
  <rect x="560" y="820" width="12" height="4" fill="#00ffcc" />
  <rect x="560" y="832" width="12" height="4" fill="#00ffcc" />
  <rect x="572" y="820" width="4" height="24" fill="#00ffcc" />

  
  
  <text x="84" y="226" font-family="monospace" font-size="88" font-weight="bold" fill="#220066" letter-spacing="-2">DAVID RITTENHOUSE</text>
  
  <text x="80" y="222" font-family="monospace" font-size="88" font-weight="bold" fill="#00ffcc" letter-spacing="-2">DAVID RITTENHOUSE</text>

  
  <text x="84" y="324" font-family="monospace" font-size="52" font-weight="bold" fill="#110033">ASTRONOMER &amp; INSTRUMENT MAKER</text>
  <text x="80" y="320" font-family="monospace" font-size="52" font-weight="bold" fill="#ffdd44" letter-spacing="0">ASTRONOMER &amp; INSTRUMENT MAKER</text>

  
  <rect x="80" y="355" width="240" height="64" fill="#ff4488" />
  <rect x="84" y="359" width="232" height="56" fill="#cc1155" />
  <text x="104" y="401" font-family="monospace" font-size="48" font-weight="bold" fill="#ffffff">1778</text>

  
  <rect x="370" y="355" width="360" height="64" fill="#3333cc" />
  <rect x="374" y="359" width="352" height="56" fill="#1111aa" />
  <text x="390" y="401" font-family="monospace" font-size="34" font-weight="bold" fill="#00ffcc">SOLAR ECLIPSE</text>

  
  <rect x="80" y="930" width="820" height="50" fill="#110033" opacity="0.8" />
  <text x="96" y="965" font-family="monospace" font-size="28" fill="#aaaaff">★ PHILADELPHIA, JUNE 24, 1778 ★ AMERICAN PHILOSOPHICAL SOCIETY ★</text>

  
  <rect x="0" y="0" width="1536" height="16" fill="#ff4488" />
  <rect x="0" y="16" width="1536" height="8" fill="#cc1155" />
  <rect x="0" y="1008" width="1536" height="16" fill="#ff4488" />
  <rect x="0" y="1000" width="1536" height="8" fill="#cc1155" />
  <rect x="0" y="0" width="16" height="1024" fill="#ff4488" />
  <rect x="16" y="0" width="8" height="1024" fill="#cc1155" />
  <rect x="1520" y="0" width="16" height="1024" fill="#ff4488" />
  <rect x="1512" y="0" width="8" height="1024" fill="#cc1155" />

  
  <rect x="16" y="16" width="32" height="32" fill="#ffdd44" />
  <rect x="1488" y="16" width="32" height="32" fill="#ffdd44" />
  <rect x="16" y="976" width="32" height="32" fill="#ffdd44" />
  <rect x="1488" y="976" width="32" height="32" fill="#ffdd44" />

  
  <rect x="400" y="930" width="16" height="60" fill="#1a0a2e" />
  <rect x="424" y="920" width="20" height="70" fill="#1a0a2e" />
  <rect x="452" y="940" width="16" height="50" fill="#1a0a2e" />
  <rect x="476" y="910" width="24" height="80" fill="#1a0a2e" />
  <rect x="508" y="935" width="16" height="55" fill="#1a0a2e" />
  <rect x="532" y="945" width="12" height="45" fill="#1a0a2e" />

</svg>