<svg xmlns="http://www.w3.org/2000/svg" viewBox="0 0 1536 1024" role="img" width="1536" height="1024">
  <title>General William Howe (1729–1814) — Retro Pixel Art Banner</title>
  <defs>
    <radialGradient id="crt" cx="50%" cy="50%" r="70%">
      <stop offset="0%" stop-color="#1a2a1a" />
      <stop offset="100%" stop-color="#050a05" />
    </radialGradient>
    <filter id="glow">
      <feGaussianBlur stdDeviation="3" result="blur" />
      <feMerge><feMergeNode in="blur" /><feMergeNode in="SourceGraphic" /></feMerge>
    </filter>
    <pattern id="scanlines" x="0" y="0" width="2" height="4" patternUnits="userSpaceOnUse">
      <rect x="0" y="0" width="2" height="2" fill="rgba(0,0,0,0.18)" />
    </pattern>
  </defs>

  
  <rect width="1536" height="1024" fill="url(#crt)" />
  
  <rect x="60" y="40" width="4" height="4" fill="#ffffaa" />
  <rect x="140" y="90" width="4" height="4" fill="#ffffff" />
  <rect x="220" y="30" width="4" height="4" fill="#ffffcc" />
  <rect x="310" y="70" width="4" height="4" fill="#ffffff" />
  <rect x="400" y="20" width="4" height="4" fill="#ffffaa" />
  <rect x="480" y="55" width="4" height="4" fill="#ffffff" />
  <rect x="560" y="35" width="4" height="4" fill="#ffffcc" />
  <rect x="640" y="80" width="4" height="4" fill="#ffffff" />
  <rect x="720" y="15" width="4" height="4" fill="#ffffaa" />
  <rect x="820" y="60" width="4" height="4" fill="#ffffff" />
  <rect x="900" y="25" width="4" height="4" fill="#ffffcc" />
  <rect x="980" y="90" width="4" height="4" fill="#ffffff" />
  <rect x="1060" y="40" width="4" height="4" fill="#ffffaa" />
  <rect x="1140" y="70" width="4" height="4" fill="#ffffff" />
  <rect x="1220" y="20" width="4" height="4" fill="#ffffcc" />
  <rect x="1320" y="50" width="4" height="4" fill="#ffffff" />
  <rect x="1420" y="85" width="4" height="4" fill="#ffffaa" />
  <rect x="100" y="150" width="4" height="4" fill="#ffffff" />
  <rect x="260" y="140" width="4" height="4" fill="#ffffaa" />
  <rect x="700" y="130" width="4" height="4" fill="#ffffff" />
  <rect x="1100" y="120" width="4" height="4" fill="#ffffcc" />
  <rect x="1380" y="155" width="4" height="4" fill="#ffffff" />

  
  
  <rect x="0" y="700" width="1536" height="324" fill="#1a3a0a" />
  
  <rect x="0" y="680" width="200" height="20" fill="#1a3a0a" />
  <rect x="20" y="668" width="160" height="12" fill="#1a3a0a" />
  <rect x="40" y="660" width="120" height="8" fill="#1a3a0a" />
  <rect x="300" y="690" width="250" height="10" fill="#1a3a0a" />
  <rect x="320" y="682" width="210" height="8" fill="#1a3a0a" />
  <rect x="700" y="685" width="300" height="15" fill="#1a3a0a" />
  <rect x="720" y="672" width="260" height="13" fill="#1a3a0a" />
  <rect x="1100" y="688" width="200" height="12" fill="#1a3a0a" />
  <rect x="1120" y="678" width="160" height="10" fill="#1a3a0a" />
  <rect x="1350" y="692" width="186" height="8" fill="#1a3a0a" />

  
  <rect x="0" y="700" width="1536" height="8" fill="#2a5a10" />
  <rect x="0" y="708" width="1536" height="4" fill="#1e4a0c" />

  
  
  
  <rect x="200" y="520" width="80" height="8" fill="#cc2200" />
  <rect x="208" y="496" width="64" height="24" fill="#1a1a1a" />
  <rect x="216" y="488" width="48" height="8" fill="#cc9900" />
  
  <rect x="216" y="504" width="48" height="40" fill="#f5c89a" />
  
  <rect x="208" y="520" width="8" height="24" fill="#eeeecc" />
  <rect x="264" y="520" width="8" height="24" fill="#eeeecc" />
  
  <rect x="208" y="544" width="64" height="80" fill="#cc2200" />
  
  <rect x="230" y="544" width="8" height="80" fill="#eeeeee" />
  <rect x="208" y="580" width="64" height="8" fill="#eeeeee" />
  
  <rect x="208" y="544" width="16" height="8" fill="#ccaa00" />
  <rect x="256" y="544" width="16" height="8" fill="#ccaa00" />
  
  <rect x="216" y="624" width="48" height="40" fill="#eeeeee" />
  
  <rect x="216" y="664" width="20" height="36" fill="#eeeeee" />
  <rect x="244" y="664" width="20" height="36" fill="#eeeeee" />
  
  <rect x="208" y="700" width="28" height="12" fill="#111111" />
  <rect x="244" y="700" width="28" height="12" fill="#111111" />
  
  <rect x="192" y="544" width="16" height="48" fill="#cc2200" />
  <rect x="272" y="544" width="16" height="56" fill="#cc2200" />
  
  <rect x="284" y="532" width="8" height="96" fill="#8B5E3C" />
  <rect x="284" y="528" width="8" height="8" fill="#888888" />
  <rect x="286" y="504" width="4" height="28" fill="#aaaaaa" />

  
  <rect x="340" y="504" width="64" height="24" fill="#1a1a1a" />
  <rect x="348" y="496" width="48" height="8" fill="#cc9900" />
  <rect x="348" y="528" width="48" height="32" fill="#f5c89a" />
  <rect x="340" y="528" width="8" height="20" fill="#eeeecc" />
  <rect x="396" y="528" width="8" height="20" fill="#eeeecc" />
  <rect x="340" y="560" width="64" height="80" fill="#cc2200" />
  <rect x="362" y="560" width="8" height="80" fill="#eeeeee" />
  <rect x="340" y="596" width="64" height="8" fill="#eeeeee" />
  <rect x="340" y="560" width="16" height="8" fill="#ccaa00" />
  <rect x="388" y="560" width="16" height="8" fill="#ccaa00" />
  <rect x="348" y="640" width="48" height="36" fill="#eeeeee" />
  <rect x="348" y="676" width="20" height="24" fill="#eeeeee" />
  <rect x="376" y="676" width="20" height="24" fill="#eeeeee" />
  <rect x="340" y="700" width="28" height="12" fill="#111111" />
  <rect x="376" y="700" width="28" height="12" fill="#111111" />
  <rect x="324" y="560" width="16" height="48" fill="#cc2200" />
  <rect x="404" y="560" width="16" height="56" fill="#cc2200" />
  <rect x="416" y="544" width="8" height="88" fill="#8B5E3C" />
  <rect x="416" y="520" width="8" height="28" fill="#aaaaaa" />

  
  <rect x="460" y="510" width="64" height="24" fill="#1a1a1a" />
  <rect x="468" y="502" width="48" height="8" fill="#cc9900" />
  <rect x="468" y="534" width="48" height="30" fill="#f5c89a" />
  <rect x="468" y="564" width="64" height="80" fill="#cc2200" />
  <rect x="490" y="564" width="8" height="80" fill="#eeeeee" />
  <rect x="468" y="600" width="64" height="8" fill="#eeeeee" />
  <rect x="468" y="564" width="16" height="8" fill="#ccaa00" />
  <rect x="516" y="564" width="16" height="8" fill="#ccaa00" />
  <rect x="476" y="644" width="48" height="36" fill="#eeeeee" />
  <rect x="476" y="680" width="20" height="20" fill="#eeeeee" />
  <rect x="504" y="680" width="20" height="20" fill="#eeeeee" />
  <rect x="468" y="700" width="28" height="12" fill="#111111" />
  <rect x="504" y="700" width="28" height="12" fill="#111111" />
  <rect x="452" y="564" width="16" height="48" fill="#cc2200" />
  <rect x="532" y="564" width="16" height="56" fill="#cc2200" />
  <rect x="544" y="540" width="8" height="88" fill="#8B5E3C" />
  <rect x="544" y="516" width="8" height="28" fill="#aaaaaa" />

  
  <rect x="580" y="400" width="8" height="300" fill="#8B5E3C" />
  <rect x="588" y="400" width="120" height="80" fill="#CC0000" />
  
  <rect x="588" y="400" width="120" height="16" fill="#eeeeee" />
  <rect x="588" y="432" width="120" height="16" fill="#eeeeee" />
  <rect x="636" y="400" width="24" height="80" fill="#eeeeee" />
  <rect x="588" y="400" width="120" height="8" fill="#003399" />
  <rect x="588" y="440" width="120" height="8" fill="#003399" />
  <rect x="648" y="400" width="8" height="80" fill="#003399" />
  
  <rect x="588" y="400" width="16" height="8" fill="#CC0000" />
  <rect x="692" y="400" width="16" height="8" fill="#CC0000" />
  <rect x="588" y="472" width="16" height="8" fill="#CC0000" />
  <rect x="692" y="472" width="16" height="8" fill="#CC0000" />

  
  
  
  <rect x="720" y="360" width="120" height="48" fill="#1a1a1a" />
  <rect x="704" y="388" width="152" height="16" fill="#1a1a1a" />
  <rect x="712" y="380" width="136" height="8" fill="#ccaa00" />
  
  <rect x="816" y="340" width="16" height="40" fill="#ffffff" />
  <rect x="824" y="328" width="12" height="20" fill="#eeeeee" />
  <rect x="828" y="316" width="8" height="16" fill="#dddddd" />
  
  <rect x="720" y="408" width="120" height="80" fill="#f0c080" />
  
  <rect x="704" y="416" width="16" height="48" fill="#eeeecc" />
  <rect x="840" y="416" width="16" height="48" fill="#eeeecc" />
  
  <rect x="740" y="432" width="16" height="12" fill="#2a1a0a" />
  <rect x="804" y="432" width="16" height="12" fill="#2a1a0a" />
  
  <rect x="772" y="456" width="16" height="8" fill="#d4a070" />
  
  <rect x="756" y="472" width="48" height="8" fill="#c07850" />
  
  <rect x="696" y="488" width="168" height="160" fill="#cc2200" />
  
  <rect x="752" y="488" width="56" height="160" fill="#cc4400" />
  <rect x="752" y="488" width="8" height="160" fill="#ccaa00" />
  <rect x="800" y="488" width="8" height="160" fill="#ccaa00" />
  
  <rect x="756" y="500" width="8" height="8" fill="#ffdd00" />
  <rect x="756" y="524" width="8" height="8" fill="#ffdd00" />
  <rect x="756" y="548" width="8" height="8" fill="#ffdd00" />
  <rect x="756" y="572" width="8" height="8" fill="#ffdd00" />
  <rect x="756" y="596" width="8" height="8" fill="#ffdd00" />
  
  <rect x="740" y="488" width="80" height="24" fill="#ffffff" />
  
  <rect x="688" y="488" width="32" height="16" fill="#ccaa00" />
  <rect x="840" y="488" width="32" height="16" fill="#ccaa00" />
  <rect x="688" y="504" width="32" height="8" fill="#ffdd00" />
  <rect x="840" y="504" width="32" height="8" fill="#ffdd00" />
  
  <rect x="696" y="608" width="168" height="16" fill="#eeeeee" />
  
  <rect x="712" y="648" width="136" height="80" fill="#eeeeee" />
  
  <rect x="712" y="700" width="52" height="80" fill="#1a1a1a" />
  <rect x="796" y="700" width="52" height="80" fill="#1a1a1a" />
  
  <rect x="712" y="700" width="52" height="12" fill="#5a3a1a" />
  <rect x="796" y="700" width="52" height="12" fill="#5a3a1a" />
  
  <rect x="672" y="488" width="24" height="80" fill="#cc2200" />
  <rect x="864" y="488" width="24" height="80" fill="#cc2200" />
  
  <rect x="672" y="568" width="24" height="20" fill="#f0c080" />
  <rect x="864" y="568" width="24" height="20" fill="#f0c080" />
  
  <rect x="852" y="540" width="12" height="180" fill="#888888" />
  <rect x="840" y="540" width="36" height="8" fill="#ccaa00" />
  <rect x="854" y="528" width="8" height="16" fill="#cccccc" />

  
  
  
  <rect x="960" y="510" width="64" height="24" fill="#1a1a1a" />
  <rect x="968" y="502" width="48" height="8" fill="#222244" />
  <rect x="968" y="534" width="48" height="30" fill="#f5c89a" />
  <rect x="968" y="564" width="64" height="80" fill="#003399" />
  <rect x="990" y="564" width="8" height="80" fill="#eeeeee" />
  <rect x="968" y="600" width="64" height="8" fill="#eeeeee" />
  <rect x="968" y="564" width="16" height="8" fill="#ccaa00" />
  <rect x="1016" y="564" width="16" height="8" fill="#ccaa00" />
  <rect x="976" y="644" width="48" height="36" fill="#eeeeee" />
  <rect x="976" y="680" width="20" height="20" fill="#eeeeee" />
  <rect x="1004" y="680" width="20" height="20" fill="#eeeeee" />
  <rect x="968" y="700" width="28" height="12" fill="#111111" />
  <rect x="1004" y="700" width="28" height="12" fill="#111111" />
  <rect x="952" y="564" width="16" height="56" fill="#003399" />
  <rect x="1032" y="564" width="16" height="48" fill="#003399" />
  <rect x="940" y="540" width="8" height="96" fill="#8B5E3C" />
  <rect x="940" y="516" width="8" height="28" fill="#aaaaaa" />

  
  <rect x="1080" y="504" width="64" height="24" fill="#1a1a1a" />
  <rect x="1088" y="496" width="48" height="8" fill="#222244" />
  <rect x="1088" y="528" width="48" height="32" fill="#f5c89a" />
  <rect x="1080" y="528" width="8" height="20" fill="#eeeecc" />
  <rect x="1136" y="528" width="8" height="20" fill="#eeeecc" />
  <rect x="1080" y="560" width="64" height="80" fill="#003399" />
  <rect x="1102" y="560" width="8" height="80" fill="#eeeeee" />
  <rect x="1080" y="596" width="64" height="8" fill="#eeeeee" />
  <rect x="1080" y="560" width="16" height="8" fill="#ccaa00" />
  <rect x="1128" y="560" width="16" height="8" fill="#ccaa00" />
  <rect x="1088" y="640" width="48" height="36" fill="#eeeeee" />
  <rect x="1088" y="676" width="20" height="24" fill="#eeeeee" />
  <rect x="1116" y="676" width="20" height="24" fill="#eeeeee" />
  <rect x="1080" y="700" width="28" height="12" fill="#111111" />
  <rect x="1116" y="700" width="28" height="12" fill="#111111" />
  <rect x="1064" y="560" width="16" height="56" fill="#003399" />
  <rect x="1144" y="560" width="16" height="48" fill="#003399" />
  <rect x="1052" y="536" width="8" height="96" fill="#8B5E3C" />
  <rect x="1052" y="512" width="8" height="28" fill="#aaaaaa" />

  
  <rect x="1200" y="516" width="64" height="24" fill="#1a1a1a" />
  <rect x="1208" y="508" width="48" height="8" fill="#222244" />
  <rect x="1208" y="540" width="48" height="32" fill="#f5c89a" />
  <rect x="1200" y="572" width="64" height="80" fill="#003399" />
  <rect x="1222" y="572" width="8" height="80" fill="#eeeeee" />
  <rect x="1200" y="608" width="64" height="8" fill="#eeeeee" />
  <rect x="1200" y="572" width="16" height="8" fill="#ccaa00" />
  <rect x="1248" y="572" width="16" height="8" fill="#ccaa00" />
  <rect x="1208" y="652" width="48" height="36" fill="#eeeeee" />
  <rect x="1208" y="688" width="20" height="20" fill="#eeeeee" />
  <rect x="1236" y="688" width="20" height="20" fill="#eeeeee" />
  <rect x="1200" y="700" width="28" height="12" fill="#111111" />
  <rect x="1236" y="700" width="28" height="12" fill="#111111" />
  <rect x="1184" y="572" width="16" height="56" fill="#003399" />
  <rect x="1264" y="572" width="16" height="48" fill="#003399" />
  <rect x="1172" y="548" width="8" height="96" fill="#8B5E3C" />
  <rect x="1172" y="524" width="8" height="28" fill="#aaaaaa" />

  
  <rect x="1320" y="380" width="8" height="320" fill="#8B5E3C" />
  <rect x="1328" y="380" width="160" height="100" fill="#CC0000" />
  
  <rect x="1328" y="394" width="160" height="8" fill="#eeeeee" />
  <rect x="1328" y="408" width="160" height="8" fill="#CC0000" />
  <rect x="1328" y="422" width="160" height="8" fill="#eeeeee" />
  <rect x="1328" y="436" width="160" height="8" fill="#CC0000" />
  <rect x="1328" y="450" width="160" height="8" fill="#eeeeee" />
  <rect x="1328" y="464" width="160" height="8" fill="#CC0000" />
  <rect x="1328" y="478" width="160" height="8" fill="#eeeeee" />
  
  <rect x="1328" y="380" width="80" height="56" fill="#003399" />
  
  <rect x="1336" y="388" width="6" height="6" fill="#ffffff" />
  <rect x="1352" y="388" width="6" height="6" fill="#ffffff" />
  <rect x="1368" y="388" width="6" height="6" fill="#ffffff" />
  <rect x="1384" y="388" width="6" height="6" fill="#ffffff" />
  <rect x="1336" y="402" width="6" height="6" fill="#ffffff" />
  <rect x="1352" y="402" width="6" height="6" fill="#ffffff" />
  <rect x="1368" y="402" width="6" height="6" fill="#ffffff" />
  <rect x="1336" y="416" width="6" height="6" fill="#ffffff" />
  <rect x="1352" y="416" width="6" height="6" fill="#ffffff" />
  <rect x="1368" y="416" width="6" height="6" fill="#ffffff" />
  <rect x="1384" y="416" width="6" height="6" fill="#ffffff" />
  <rect x="1336" y="430" width="6" height="6" fill="#ffffff" />
  <rect x="1352" y="430" width="6" height="6" fill="#ffffff" />
  <rect x="1368" y="430" width="6" height="6" fill="#ffffff" />

  
  
  <rect x="100" y="668" width="80" height="32" fill="#555555" />
  <rect x="80" y="668" width="20" height="32" fill="#444444" />
  <rect x="176" y="668" width="24" height="32" fill="#666666" />
  <rect x="84" y="700" width="112" height="16" fill="#333333" />
  
  <rect x="88" y="708" width="32" height="32" fill="#5a3a1a" />
  <rect x="92" y="704" width="24" height="40" fill="#5a3a1a" />
  <rect x="96" y="700" width="16" height="48" fill="#5a3a1a" />
  <rect x="80" y="716" width="48" height="16" fill="#5a3a1a" />
  <rect x="96" y="716" width="16" height="16" fill="#333333" />
  <rect x="160" y="708" width="32" height="32" fill="#5a3a1a" />
  <rect x="164" y="704" width="24" height="40" fill="#5a3a1a" />
  <rect x="168" y="700" width="16" height="48" fill="#5a3a1a" />
  <rect x="152" y="716" width="48" height="16" fill="#5a3a1a" />
  <rect x="168" y="716" width="16" height="16" fill="#333333" />

  
  <rect x="630" y="690" width="20" height="20" fill="#333333" />
  <rect x="634" y="686" width="12" height="4" fill="#333333" />
  <rect x="626" y="694" width="4" height="12" fill="#333333" />
  <rect x="650" y="694" width="4" height="12" fill="#333333" />
  <rect x="630" y="706" width="12" height="4" fill="#333333" />

  <rect x="670" y="694" width="16" height="16" fill="#333333" />
  <rect x="674" y="690" width="8" height="4" fill="#333333" />
  <rect x="666" y="698" width="4" height="8" fill="#333333" />
  <rect x="686" y="698" width="4" height="8" fill="#333333" />
  <rect x="670" y="706" width="8" height="4" fill="#333333" />

  
  <rect x="860" y="640" width="40" height="40" fill="#888888" opacity="0.7" />
  <rect x="848" y="648" width="16" height="24" fill="#aaaaaa" opacity="0.6" />
  <rect x="896" y="644" width="20" height="20" fill="#999999" opacity="0.6" />
  <rect x="856" y="624" width="28" height="20" fill="#bbbbbb" opacity="0.5" />
  <rect x="876" y="612" width="20" height="20" fill="#cccccc" opacity="0.4" />

  
  <rect x="60" y="560" width="32" height="140" fill="#2d5a1a" />
  <rect x="44" y="520" width="64" height="48" fill="#1a4a08" />
  <rect x="52" y="496" width="48" height="32" fill="#1a4a08" />
  <rect x="60" y="480" width="32" height="20" fill="#1a4a08" />

  
  <rect x="1440" y="540" width="32" height="160" fill="#2d5a1a" />
  <rect x="1424" y="496" width="64" height="52" fill="#1a4a08" />
  <rect x="1432" y="472" width="48" height="32" fill="#1a4a08" />
  <rect x="1440" y="456" width="32" height="20" fill="#1a4a08" />

  <rect x="1380" y="580" width="24" height="120" fill="#2d5a1a" />
  <rect x="1368" y="548" width="48" height="40" fill="#1a4a08" />
  <rect x="1376" y="528" width="32" height="24" fill="#1a4a08" />

  
  <rect width="1536" height="1024" fill="url(#scanlines)" opacity="0.5" />

  
  <radialGradient id="vignette" cx="50%" cy="50%" r="75%">
    <stop offset="60%" stop-color="rgba(0,0,0,0)" />
    <stop offset="100%" stop-color="rgba(0,0,0,0.6)" />
  </radialGradient>
  <rect width="1536" height="1024" fill="url(#vignette)" />

  
  
  <rect x="80" y="60" width="1376" height="300" fill="#000000" opacity="0.75" />
  <rect x="80" y="60" width="1376" height="8" fill="#cc9900" />
  <rect x="80" y="352" width="1376" height="8" fill="#cc9900" />
  <rect x="80" y="60" width="8" height="300" fill="#cc9900" />
  <rect x="1448" y="60" width="8" height="300" fill="#cc9900" />
  
  <rect x="96" y="76" width="1344" height="268" fill="none" stroke="#cc440050" stroke-width="4" />

  
  <text x="768" y="180" font-family="'Courier New', Courier, monospace" font-size="92" font-weight="bold" fill="#ffdd00" text-anchor="middle" filter="url(#glow)" letter-spacing="4">GENERAL WILLIAM HOWE</text>
  <text x="768" y="272" font-family="'Courier New', Courier, monospace" font-size="64" font-weight="bold" fill="#ff8800" text-anchor="middle" filter="url(#glow)" letter-spacing="8">(1729 – 1814)</text>
  <text x="768" y="336" font-family="'Courier New', Courier, monospace" font-size="36" fill="#aaffaa" text-anchor="middle" letter-spacing="6">BRITISH COMMANDER ✦ AMERICAN REVOLUTION</text>

  
  <rect x="0" y="940" width="1536" height="84" fill="#000000" opacity="0.85" />
  <rect x="0" y="940" width="1536" height="4" fill="#cc9900" />
  <text x="80" y="992" font-family="'Courier New', Courier, monospace" font-size="32" fill="#ffdd00" font-weight="bold">BUNKER HILL 1775</text>
  <text x="460" y="992" font-family="'Courier New', Courier, monospace" font-size="32" fill="#ff8888" font-weight="bold">★ NEW YORK 1776 ★</text>
  <text x="840" y="992" font-family="'Courier New', Courier, monospace" font-size="32" fill="#aaffaa" font-weight="bold">PHILADELPHIA 1777</text>
  <text x="1240" y="992" font-family="'Courier New', Courier, monospace" font-size="32" fill="#88ccff" font-weight="bold">RESIGNED 1778</text>

</svg>