<svg xmlns="http://www.w3.org/2000/svg" viewBox="0 0 1536 1024" role="img" width="1536" height="1024">
  <title>King Louis XVI (1754–1793) in 1778 – Pixel Art Banner</title>
  <defs>
    <radialGradient id="crt" cx="50%" cy="50%" r="70%">
      <stop offset="0%" stop-color="#1a0a2e" />
      <stop offset="100%" stop-color="#050008" />
    </radialGradient>
    <filter id="glow">
      <feGaussianBlur stdDeviation="3" result="blur" />
      <feMerge><feMergeNode in="blur" /><feMergeNode in="SourceGraphic" /></feMerge>
    </filter>
    <filter id="glow2">
      <feGaussianBlur stdDeviation="6" result="blur" />
      <feMerge><feMergeNode in="blur" /><feMergeNode in="SourceGraphic" /></feMerge>
    </filter>
    
    <pattern id="scan" x="0" y="0" width="4" height="4" patternUnits="userSpaceOnUse">
      <rect width="4" height="1" fill="rgba(0,0,0,0.18)" />
    </pattern>
  </defs>

  
  <rect width="1536" height="1024" fill="url(#crt)" />

  
  <g fill="#3a1f6e" opacity="0.7">
    <rect x="80" y="60" width="4" height="4" />
    <rect x="200" y="120" width="4" height="4" />
    <rect x="350" y="40" width="4" height="4" />
    <rect x="500" y="90" width="4" height="4" />
    <rect x="700" y="30" width="4" height="4" />
    <rect x="900" y="80" width="4" height="4" />
    <rect x="1100" y="50" width="4" height="4" />
    <rect x="1300" y="110" width="4" height="4" />
    <rect x="1450" y="40" width="4" height="4" />
    <rect x="130" y="900" width="4" height="4" />
    <rect x="400" y="950" width="4" height="4" />
    <rect x="600" y="920" width="4" height="4" />
    <rect x="800" y="980" width="4" height="4" />
    <rect x="1000" y="940" width="4" height="4" />
    <rect x="1200" y="960" width="4" height="4" />
    <rect x="1400" y="910" width="4" height="4" />
  </g>

  
  
  <g filter="url(#glow)" transform="translate(160, 200)">
    
    
    <rect x="32" y="0" width="16" height="16" fill="#ffd700" />
    <rect x="48" y="0" width="16" height="16" fill="#ffd700" />
    <rect x="64" y="0" width="16" height="16" fill="#ffd700" />
    <rect x="80" y="0" width="16" height="16" fill="#ffd700" />
    <rect x="96" y="0" width="16" height="16" fill="#ffd700" />
    
    <rect x="40" y="0" width="8" height="8" fill="#ff4444" />
    <rect x="64" y="0" width="8" height="8" fill="#44aaff" />
    <rect x="88" y="0" width="8" height="8" fill="#ff4444" />
    
    <rect x="24" y="16" width="112" height="16" fill="#ffd700" />

    
    <rect x="40" y="32" width="80" height="64" fill="#f5c5a3" />
    
    <rect x="16" y="32" width="24" height="64" fill="#f0f0f0" />
    <rect x="120" y="32" width="24" height="64" fill="#f0f0f0" />
    
    <rect x="16" y="80" width="24" height="32" fill="#e0e0e0" />
    <rect x="120" y="80" width="24" height="32" fill="#e0e0e0" />
    
    <rect x="56" y="56" width="12" height="12" fill="#2a1a00" />
    <rect x="92" y="56" width="12" height="12" fill="#2a1a00" />
    
    <rect x="76" y="72" width="8" height="8" fill="#e0a888" />
    
    <rect x="64" y="84" width="32" height="8" fill="#c08070" />

    
    <rect x="56" y="96" width="48" height="16" fill="#f5c5a3" />
    
    <rect x="48" y="112" width="64" height="20" fill="#ffffff" />

    
    <rect x="16" y="132" width="128" height="160" fill="#1a3a8c" />
    
    <rect x="16" y="132" width="16" height="160" fill="#ffd700" />
    <rect x="128" y="132" width="16" height="160" fill="#ffd700" />
    <rect x="16" y="132" width="128" height="16" fill="#ffd700" />
    
    <rect x="72" y="152" width="16" height="16" fill="#ffd700" />
    <rect x="72" y="180" width="16" height="16" fill="#ffd700" />
    <rect x="72" y="208" width="16" height="16" fill="#ffd700" />
    
    <rect x="40" y="160" width="8" height="24" fill="#ffd700" />
    <rect x="36" y="164" width="16" height="8" fill="#ffd700" />
    <rect x="36" y="156" width="16" height="8" fill="#ffd700" />
    <rect x="104" y="160" width="8" height="24" fill="#ffd700" />
    <rect x="100" y="164" width="16" height="8" fill="#ffd700" />
    <rect x="100" y="156" width="16" height="8" fill="#ffd700" />

    
    <rect x="32" y="292" width="48" height="80" fill="#f0f0e0" />
    <rect x="80" y="292" width="48" height="80" fill="#f0f0e0" />
    
    <rect x="32" y="372" width="48" height="80" fill="#ffffff" />
    <rect x="80" y="372" width="48" height="80" fill="#ffffff" />
    
    <rect x="24" y="452" width="56" height="32" fill="#111111" />
    <rect x="80" y="452" width="56" height="32" fill="#111111" />
    <rect x="36" y="456" width="16" height="16" fill="#ffd700" />
    <rect x="96" y="456" width="16" height="16" fill="#ffd700" />

    
    <rect x="0" y="132" width="20" height="100" fill="#1a3a8c" />
    <rect x="140" y="132" width="20" height="100" fill="#1a3a8c" />
    
    <rect x="0" y="232" width="20" height="24" fill="#f5c5a3" />
    <rect x="140" y="232" width="20" height="24" fill="#f5c5a3" />
    
    <rect x="152" y="120" width="8" height="180" fill="#ffd700" />
    <rect x="144" y="112" width="24" height="16" fill="#ffd700" />
    <rect x="148" y="100" width="16" height="16" fill="#ff4444" />
  </g>

  
  <g fill="#2a1060" opacity="0.6" transform="translate(550, 300)">
    
    <rect x="0" y="200" width="500" height="300" fill="#2a1a5e" />
    
    <rect x="-80" y="280" width="80" height="220" fill="#221654" />
    <rect x="500" y="280" width="80" height="220" fill="#221654" />
    
    <g fill="#6644cc">
      <rect x="20" y="220" width="32" height="48" rx="2" />
      <rect x="72" y="220" width="32" height="48" rx="2" />
      <rect x="124" y="220" width="32" height="48" rx="2" />
      <rect x="176" y="220" width="32" height="48" rx="2" />
      <rect x="228" y="220" width="32" height="48" rx="2" />
      <rect x="280" y="220" width="32" height="48" rx="2" />
      <rect x="332" y="220" width="32" height="48" rx="2" />
      <rect x="384" y="220" width="32" height="48" rx="2" />
      <rect x="436" y="220" width="32" height="48" rx="2" />
    </g>
    
    <g fill="#6644cc">
      <rect x="20" y="300" width="32" height="48" rx="2" />
      <rect x="72" y="300" width="32" height="48" rx="2" />
      <rect x="124" y="300" width="32" height="48" rx="2" />
      <rect x="176" y="300" width="32" height="48" rx="2" />
      <rect x="228" y="300" width="32" height="48" rx="2" />
      <rect x="280" y="300" width="32" height="48" rx="2" />
      <rect x="332" y="300" width="32" height="48" rx="2" />
      <rect x="384" y="300" width="32" height="48" rx="2" />
      <rect x="436" y="300" width="32" height="48" rx="2" />
    </g>
    
    <g fill="#1a0e44">
      <rect x="10" y="160" width="48" height="48" rx="24 24 0 0" />
      <rect x="80" y="160" width="48" height="48" rx="24 24 0 0" />
      <rect x="150" y="160" width="48" height="48" rx="24 24 0 0" />
      <rect x="220" y="160" width="48" height="48" rx="24 24 0 0" />
      <rect x="290" y="160" width="48" height="48" rx="24 24 0 0" />
      <rect x="360" y="160" width="48" height="48" rx="24 24 0 0" />
      <rect x="430" y="160" width="48" height="48" rx="24 24 0 0" />
    </g>
    
    <rect x="190" y="80" width="120" height="120" fill="#3a2080" />
    <rect x="210" y="40" width="80" height="48" rx="40 40 0 0" fill="#4a28a0" />
    <rect x="238" y="20" width="24" height="28" fill="#ffd700" />
    
    <rect x="250" y="0" width="4" height="24" fill="#ffd700" />
    <rect x="254" y="0" width="20" height="16" fill="#0055a4" />
    <rect x="274" y="0" width="8" height="16" fill="#ffffff" />
    <rect x="282" y="0" width="8" height="16" fill="#ef4135" />
  </g>

  
  <g transform="translate(1050, 420)" filter="url(#glow)">
    
    <rect x="0" y="200" width="320" height="80" fill="#8B4513" />
    <rect x="20" y="280" width="280" height="40" fill="#6B3410" />
    
    <g fill="#111">
      <rect x="30" y="220" width="24" height="24" />
      <rect x="74" y="220" width="24" height="24" />
      <rect x="118" y="220" width="24" height="24" />
      <rect x="162" y="220" width="24" height="24" />
      <rect x="206" y="220" width="24" height="24" />
      <rect x="250" y="220" width="24" height="24" />
    </g>
    
    <rect x="80" y="0" width="8" height="204" fill="#c8a060" />
    <rect x="200" y="20" width="8" height="184" fill="#c8a060" />
    
    <rect x="20" y="20" width="68" height="120" fill="#f0f0f0" opacity="0.9" />
    <rect x="20" y="20" width="22" height="120" fill="#0055a4" opacity="0.9" />
    <rect x="64" y="20" width="24" height="120" fill="#ef4135" opacity="0.9" />
    
    <rect x="136" y="36" width="68" height="100" fill="#f0f0f0" opacity="0.9" />
    <rect x="136" y="36" width="22" height="100" fill="#0055a4" opacity="0.9" />
    <rect x="180" y="36" width="24" height="100" fill="#ef4135" opacity="0.9" />
    
    <g fill="#1a6aaa">
      <rect x="-40" y="316" width="60" height="16" />
      <rect x="40" y="320" width="60" height="12" />
      <rect x="120" y="316" width="60" height="16" />
      <rect x="200" y="320" width="60" height="12" />
      <rect x="280" y="316" width="80" height="16" />
    </g>
    <g fill="#2288cc">
      <rect x="-40" y="328" width="400" height="12" />
    </g>
  </g>

  
  <g fill="#1a5580" opacity="0.5">
    <rect x="0" y="860" width="1536" height="164" />
  </g>
  <g fill="#1e6fa0" opacity="0.6">
    <rect x="0" y="848" width="120" height="20" />
    <rect x="160" y="852" width="100" height="16" />
    <rect x="300" y="848" width="140" height="20" />
    <rect x="480" y="852" width="120" height="16" />
    <rect x="650" y="848" width="150" height="20" />
    <rect x="840" y="852" width="120" height="16" />
    <rect x="1000" y="848" width="160" height="20" />
    <rect x="1200" y="852" width="140" height="16" />
    <rect x="1380" y="848" width="156" height="20" />
  </g>

  
  <g filter="url(#glow2)" fill="#ffd700" opacity="0.5">
    
    <rect x="60" y="700" width="12" height="40" />
    <rect x="52" y="708" width="28" height="12" />
    <rect x="52" y="696" width="28" height="12" />
    <rect x="64" y="684" width="8" height="16" />
    
    <rect x="1460" y="700" width="12" height="40" />
    <rect x="1452" y="708" width="28" height="12" />
    <rect x="1452" y="696" width="28" height="12" />
    <rect x="1464" y="684" width="8" height="16" />
  </g>

  
  <g fill="#ffff88" filter="url(#glow)">
    <rect x="1380" y="120" width="8" height="8" />
    <rect x="1372" y="112" width="8" height="8" />
    <rect x="1388" y="112" width="8" height="8" />
    <rect x="1380" y="104" width="8" height="8" />
    <rect x="1372" y="128" width="8" height="8" />
    <rect x="1388" y="128" width="8" height="8" />

    <rect x="1430" y="140" width="8" height="8" />
    <rect x="1422" y="132" width="8" height="8" />
    <rect x="1438" y="132" width="8" height="8" />
    <rect x="1430" y="124" width="8" height="8" />
    <rect x="1422" y="148" width="8" height="8" />
    <rect x="1438" y="148" width="8" height="8" />

    <rect x="1475" y="120" width="8" height="8" />
    <rect x="1467" y="112" width="8" height="8" />
    <rect x="1483" y="112" width="8" height="8" />
    <rect x="1475" y="104" width="8" height="8" />
    <rect x="1467" y="128" width="8" height="8" />
    <rect x="1483" y="128" width="8" height="8" />

    <rect x="1350" y="160" width="8" height="8" />
    <rect x="1342" y="152" width="8" height="8" />
    <rect x="1358" y="152" width="8" height="8" />
    <rect x="1350" y="144" width="8" height="8" />
    <rect x="1342" y="168" width="8" height="8" />
    <rect x="1358" y="168" width="8" height="8" />
  </g>

  
  
  <rect x="0" y="0" width="1536" height="16" fill="#ffd700" />
  <rect x="0" y="16" width="1536" height="8" fill="#0055a4" />
  <rect x="0" y="24" width="1536" height="8" fill="#ef4135" />
  
  <rect x="0" y="1000" width="1536" height="8" fill="#ef4135" />
  <rect x="0" y="1008" width="1536" height="8" fill="#0055a4" />
  <rect x="0" y="1016" width="1536" height="8" fill="#ffd700" />
  
  <rect x="0" y="0" width="8" height="1024" fill="#ffd700" />
  <rect x="8" y="0" width="8" height="1024" fill="#0055a4" />
  
  <rect x="1520" y="0" width="8" height="1024" fill="#ffd700" />
  <rect x="1512" y="0" width="8" height="1024" fill="#0055a4" />

  
  <g fill="#ffd700">
    <rect x="16" y="32" width="32" height="32" />
    <rect x="48" y="16" width="32" height="16" />
    <rect x="1456" y="32" width="32" height="32" />
    <rect x="1456" y="16" width="32" height="16" />
    <rect x="16" y="960" width="32" height="32" />
    <rect x="48" y="992" width="32" height="16" />
    <rect x="1456" y="960" width="32" height="32" />
    <rect x="1456" y="992" width="32" height="16" />
  </g>

  
  
  <text x="768" y="138" font-family="'Courier New', Courier, monospace" font-size="72" font-weight="bold" text-anchor="middle" fill="#ffd700" filter="url(#glow2)" letter-spacing="4">
    KING LOUIS XVI
  </text>
  <text x="768" y="138" font-family="'Courier New', Courier, monospace" font-size="72" font-weight="bold" text-anchor="middle" fill="#ffd700" letter-spacing="4">
    KING LOUIS XVI
  </text>

  
  <text x="768" y="210" font-family="'Courier New', Courier, monospace" font-size="40" font-weight="bold" text-anchor="middle" fill="#aaddff" filter="url(#glow)" letter-spacing="6">
    (1754–1793)  ·  1778
  </text>

  
  <g fill="#ffd700" opacity="0.8">
    <rect x="300" y="232" width="16" height="8" />
    <rect x="324" y="232" width="16" height="8" />
    <rect x="348" y="232" width="16" height="8" />
    <rect x="372" y="232" width="16" height="8" />
    <rect x="396" y="232" width="300" height="8" />
    <rect x="840" y="232" width="300" height="8" />
    <rect x="1148" y="232" width="16" height="8" />
    <rect x="1172" y="232" width="16" height="8" />
    <rect x="1196" y="232" width="16" height="8" />
    <rect x="1220" y="232" width="16" height="8" />
    
    <rect x="716" y="220" width="16" height="16" />
    <rect x="740" y="220" width="16" height="16" />
    <rect x="764" y="220" width="16" height="16" />
    <rect x="716" y="232" width="104" height="8" />
  </g>

  
  <text x="768" y="820" font-family="'Courier New', Courier, monospace" font-size="28" text-anchor="middle" fill="#cc88ff" filter="url(#glow)" letter-spacing="3">
    ALLIANCE · VERSAILLES · REVOLUTION · 1778
  </text>

  
  <text x="768" y="880" font-family="'Courier New', Courier, monospace" font-size="22" text-anchor="middle" fill="#ffff44" filter="url(#glow)" letter-spacing="2">
    FRENCH ALLIANCE WITH AMERICAN COLONIES
  </text>

  
  <rect x="1310" y="60" width="184" height="64" fill="#0055a4" />
  <rect x="1314" y="64" width="176" height="56" fill="#003388" />
  <text x="1402" y="106" font-family="'Courier New', Courier, monospace" font-size="40" font-weight="bold" text-anchor="middle" fill="#ffd700" letter-spacing="2">
    1778
  </text>

  
  <rect width="1536" height="1024" fill="url(#scan)" opacity="0.4" />

  
  <radialGradient id="vignette" cx="50%" cy="50%" r="70%">
    <stop offset="60%" stop-color="transparent" />
    <stop offset="100%" stop-color="rgba(0,0,0,0.55)" />
  </radialGradient>
  <rect width="1536" height="1024" fill="url(#vignette)" />
</svg>