<svg xmlns="http://www.w3.org/2000/svg" viewBox="0 0 1536 1024" role="img" width="1536" height="1024">
  <title>Treaty of Alliance with the Delaware Nation (September 17, 1778) — Retro Pixel Art Banner</title>

  <defs>
    
    <pattern id="scanlines" x="0" y="0" width="2" height="4" patternUnits="userSpaceOnUse">
      <rect x="0" y="0" width="2" height="2" fill="rgba(0,0,0,0.18)" />
      <rect x="0" y="2" width="2" height="2" fill="rgba(0,0,0,0)" />
    </pattern>
    
    <radialGradient id="crtGlow" cx="50%" cy="50%" r="60%">
      <stop offset="0%" stop-color="#1a0a3a" stop-opacity="0" />
      <stop offset="80%" stop-color="#0a0018" stop-opacity="0.4" />
      <stop offset="100%" stop-color="#000010" stop-opacity="0.85" />
    </radialGradient>
    
    <linearGradient id="skyGrad" x1="0" y1="0" x2="0" y2="1">
      <stop offset="0%" stop-color="#0d0d2b" />
      <stop offset="60%" stop-color="#1a1060" />
      <stop offset="100%" stop-color="#2d1b00" />
    </linearGradient>
    
    <linearGradient id="groundGrad" x1="0" y1="0" x2="0" y2="1">
      <stop offset="0%" stop-color="#2d4a00" />
      <stop offset="100%" stop-color="#1a2800" />
    </linearGradient>
    
    <filter id="glow" x="-30%" y="-30%" width="160%" height="160%">
      <feGaussianBlur in="SourceGraphic" stdDeviation="3" result="blur" />
      <feMerge><feMergeNode in="blur" /><feMergeNode in="SourceGraphic" /></feMerge>
    </filter>
    <filter id="textGlow" x="-20%" y="-20%" width="140%" height="140%">
      <feGaussianBlur in="SourceGraphic" stdDeviation="6" result="blur" />
      <feMerge><feMergeNode in="blur" /><feMergeNode in="blur" /><feMergeNode in="SourceGraphic" /></feMerge>
    </filter>
  </defs>

  
  <rect width="1536" height="1024" fill="url(#skyGrad)" />

  
  <g fill="#ffffaa" opacity="0.9">
    <rect x="80" y="40" width="4" height="4" />
    <rect x="200" y="80" width="4" height="4" />
    <rect x="340" y="30" width="4" height="4" />
    <rect x="460" y="90" width="4" height="4" />
    <rect x="580" y="20" width="4" height="4" />
    <rect x="720" y="60" width="4" height="4" />
    <rect x="860" y="35" width="4" height="4" />
    <rect x="980" y="75" width="4" height="4" />
    <rect x="1100" y="25" width="4" height="4" />
    <rect x="1240" y="55" width="4" height="4" />
    <rect x="1380" y="40" width="4" height="4" />
    <rect x="150" y="140" width="4" height="4" />
    <rect x="420" y="150" width="4" height="4" />
    <rect x="650" y="120" width="4" height="4" />
    <rect x="900" y="130" width="4" height="4" />
    <rect x="1150" y="110" width="4" height="4" />
    <rect x="1420" y="145" width="4" height="4" />
    <rect x="300" y="170" width="4" height="4" />
    <rect x="1050" y="165" width="4" height="4" />
  </g>
  
  <g fill="#ffffff">
    <rect x="100" y="60" width="6" height="6" />
    <rect x="500" y="50" width="6" height="6" />
    <rect x="768" y="30" width="6" height="6" />
    <rect x="1100" y="70" width="6" height="6" />
    <rect x="1450" y="55" width="6" height="6" />
  </g>

  
  <g fill="#ffee88" filter="url(#glow)">
    <rect x="1360" y="60" width="8" height="8" />
    <rect x="1368" y="52" width="8" height="8" />
    <rect x="1376" y="52" width="8" height="8" />
    <rect x="1384" y="52" width="8" height="8" />
    <rect x="1392" y="52" width="8" height="8" />
    <rect x="1400" y="60" width="8" height="8" />
    <rect x="1368" y="60" width="8" height="8" />
    <rect x="1376" y="60" width="8" height="8" />
    <rect x="1384" y="60" width="8" height="8" />
    <rect x="1392" y="60" width="8" height="8" />
    <rect x="1360" y="68" width="8" height="8" />
    <rect x="1368" y="68" width="8" height="8" />
    <rect x="1376" y="68" width="8" height="8" />
    <rect x="1384" y="68" width="8" height="8" />
    <rect x="1392" y="68" width="8" height="8" />
    <rect x="1400" y="68" width="8" height="8" />
    <rect x="1360" y="76" width="8" height="8" />
    <rect x="1368" y="76" width="8" height="8" />
    <rect x="1376" y="76" width="8" height="8" />
    <rect x="1384" y="76" width="8" height="8" />
    <rect x="1392" y="76" width="8" height="8" />
    <rect x="1400" y="76" width="8" height="8" />
    <rect x="1368" y="84" width="8" height="8" />
    <rect x="1376" y="84" width="8" height="8" />
    <rect x="1384" y="84" width="8" height="8" />
    <rect x="1392" y="84" width="8" height="8" />
    <rect x="1360" y="84" width="8" height="8" />
    <rect x="1400" y="84" width="8" height="8" />
  </g>

  
  <rect x="0" y="700" width="1536" height="324" fill="url(#groundGrad)" />
  
  <rect x="0" y="700" width="1536" height="8" fill="#3d6400" />
  <rect x="0" y="708" width="1536" height="8" fill="#2d5200" />

  
  <rect x="0" y="730" width="1536" height="40" fill="#0a2a6e" />
  <rect x="0" y="730" width="1536" height="6" fill="#1040a0" />
  <rect x="0" y="762" width="1536" height="8" fill="#0a1e5a" />
  
  <g fill="#4488ff" opacity="0.5">
    <rect x="100" y="738" width="40" height="4" />
    <rect x="300" y="742" width="60" height="4" />
    <rect x="500" y="736" width="50" height="4" />
    <rect x="700" y="744" width="80" height="4" />
    <rect x="900" y="738" width="45" height="4" />
    <rect x="1100" y="742" width="70" height="4" />
    <rect x="1300" y="737" width="55" height="4" />
  </g>

  
  
  <g fill="#8B6914">
    
    <rect x="820" y="480" width="16" height="220" />
    
    <rect x="1060" y="480" width="16" height="220" />
    
    <rect x="820" y="684" width="256" height="16" />
    
    <rect x="820" y="480" width="256" height="16" />
  </g>
  
  <rect x="836" y="496" width="224" height="188" fill="#6b4e10" />
  
  <rect x="910" y="600" width="76" height="100" fill="#2a1a00" />
  
  <g fill="#1a0e00">
    <rect x="910" y="596" width="8" height="8" />
    <rect x="918" y="588" width="8" height="8" />
    <rect x="926" y="584" width="8" height="8" />
    <rect x="934" y="582" width="8" height="8" />
    <rect x="942" y="582" width="8" height="8" />
    <rect x="950" y="582" width="8" height="8" />
    <rect x="958" y="584" width="8" height="8" />
    <rect x="966" y="588" width="8" height="8" />
    <rect x="974" y="596" width="8" height="8" />
  </g>
  
  <g fill="#8B6914">
    <rect x="820" y="460" width="24" height="24" />
    <rect x="860" y="460" width="24" height="24" />
    <rect x="900" y="460" width="24" height="24" />
    <rect x="940" y="460" width="24" height="24" />
    <rect x="980" y="460" width="24" height="24" />
    <rect x="1020" y="460" width="24" height="24" />
    <rect x="1060" y="460" width="24" height="24" />
  </g>
  
  <rect x="938" y="380" width="6" height="90" fill="#ccaa44" />
  
  <g fill="#cc2200">
    <rect x="944" y="380" width="40" height="8" />
    <rect x="944" y="396" width="40" height="8" />
    <rect x="944" y="412" width="40" height="8" />
    <rect x="944" y="428" width="40" height="8" />
  </g>
  <g fill="#ffffff">
    <rect x="944" y="388" width="40" height="8" />
    <rect x="944" y="404" width="40" height="8" />
    <rect x="944" y="420" width="40" height="8" />
  </g>
  
  <rect x="944" y="380" width="20" height="24" fill="#002299" />
  
  <g fill="#ffffff">
    <rect x="946" y="382" width="2" height="2" />
    <rect x="952" y="382" width="2" height="2" />
    <rect x="958" y="382" width="2" height="2" />
    <rect x="946" y="388" width="2" height="2" />
    <rect x="952" y="388" width="2" height="2" />
    <rect x="958" y="388" width="2" height="2" />
    <rect x="946" y="394" width="2" height="2" />
    <rect x="952" y="394" width="2" height="2" />
    <rect x="958" y="394" width="2" height="2" />
  </g>

  
  <g fill="#1a5200">
    
    <rect x="120" y="600" width="8" height="8" />
    <rect x="112" y="616" width="24" height="8" />
    <rect x="104" y="632" width="40" height="8" />
    <rect x="96" y="648" width="56" height="8" />
    <rect x="88" y="664" width="72" height="8" />
    <rect x="120" y="672" width="8" height="32" />
    
    <rect x="220" y="580" width="8" height="8" />
    <rect x="212" y="596" width="24" height="8" />
    <rect x="204" y="612" width="40" height="8" />
    <rect x="196" y="628" width="56" height="8" />
    <rect x="188" y="644" width="72" height="8" />
    <rect x="220" y="652" width="8" height="52" />
    
    <rect x="310" y="610" width="8" height="8" />
    <rect x="302" y="626" width="24" height="8" />
    <rect x="294" y="642" width="40" height="8" />
    <rect x="286" y="658" width="56" height="8" />
    <rect x="278" y="674" width="72" height="8" />
    <rect x="310" y="682" width="8" height="22" />
    
    <rect x="400" y="590" width="8" height="8" />
    <rect x="392" y="606" width="24" height="8" />
    <rect x="384" y="622" width="40" height="8" />
    <rect x="376" y="638" width="56" height="8" />
    <rect x="368" y="654" width="72" height="8" />
    <rect x="400" y="662" width="8" height="42" />
  </g>
  <g fill="#2a7a00">
    <rect x="96" y="648" width="56" height="4" />
    <rect x="188" y="644" width="72" height="4" />
    <rect x="286" y="658" width="56" height="4" />
    <rect x="376" y="638" width="56" height="4" />
  </g>

  
  <g fill="#1a5200">
    <rect x="1180" y="595" width="8" height="8" />
    <rect x="1172" y="611" width="24" height="8" />
    <rect x="1164" y="627" width="40" height="8" />
    <rect x="1156" y="643" width="56" height="8" />
    <rect x="1148" y="659" width="72" height="8" />
    <rect x="1180" y="667" width="8" height="37" />

    <rect x="1300" y="570" width="8" height="8" />
    <rect x="1292" y="586" width="24" height="8" />
    <rect x="1284" y="602" width="40" height="8" />
    <rect x="1276" y="618" width="56" height="8" />
    <rect x="1268" y="634" width="72" height="8" />
    <rect x="1300" y="642" width="8" height="62" />

    <rect x="1420" y="600" width="8" height="8" />
    <rect x="1412" y="616" width="24" height="8" />
    <rect x="1404" y="632" width="40" height="8" />
    <rect x="1396" y="648" width="56" height="8" />
    <rect x="1388" y="664" width="72" height="8" />
    <rect x="1420" y="672" width="8" height="32" />
  </g>

  
  <g filter="url(#glow)">
    
    <rect x="618" y="428" width="300" height="240" fill="#1a0a00" opacity="0.6" />
    
    <rect x="608" y="420" width="300" height="240" fill="#f5e8c0" />
    
    <rect x="608" y="420" width="300" height="8" fill="#c8a84b" />
    <rect x="608" y="652" width="300" height="8" fill="#c8a84b" />
    <rect x="608" y="420" width="8" height="240" fill="#c8a84b" />
    <rect x="900" y="420" width="8" height="240" fill="#c8a84b" />
    
    <rect x="620" y="432" width="276" height="216" fill="none" stroke="#c8a84b" stroke-width="4" />
    
    <rect x="630" y="444" width="256" height="6" fill="#8B1a1a" />
    <rect x="650" y="456" width="216" height="6" fill="#8B1a1a" />
    
    <g fill="#555533" opacity="0.7">
      <rect x="630" y="475" width="250" height="4" />
      <rect x="630" y="487" width="240" height="4" />
      <rect x="630" y="499" width="255" height="4" />
      <rect x="630" y="511" width="230" height="4" />
      <rect x="630" y="523" width="248" height="4" />
      <rect x="630" y="535" width="235" height="4" />
      <rect x="630" y="547" width="250" height="4" />
      <rect x="630" y="559" width="220" height="4" />
    </g>
    
    <rect x="698" y="590" width="60" height="48" fill="#aa1100" />
    <rect x="706" y="582" width="44" height="60" fill="#aa1100" />
    <rect x="710" y="578" width="36" height="68" fill="#cc2200" />
    <rect x="714" y="574" width="28" height="72" fill="#dd3311" />
    
    <rect x="720" y="588" width="16" height="36" fill="#ff6633" />
    <rect x="712" y="600" width="32" height="12" fill="#ff6633" />
    
    <rect x="878" y="410" width="8" height="8" fill="#f5e5a0" />
    <rect x="870" y="418" width="8" height="8" fill="#f0dc90" />
    <rect x="862" y="426" width="8" height="8" fill="#ead080" />
    <rect x="854" y="434" width="8" height="8" fill="#e4c870" />
    <rect x="846" y="442" width="8" height="8" fill="#dec060" />
    <rect x="838" y="450" width="8" height="8" fill="#d8b850" />
    <rect x="830" y="458" width="8" height="8" fill="#d2b040" />
    <rect x="822" y="466" width="8" height="8" fill="#ccaa30" />
    <rect x="814" y="474" width="4" height="60" fill="#2a1a00" />
    <rect x="812" y="534" width="8" height="4" fill="#110800" />
    <rect x="814" y="538" width="4" height="4" fill="#110800" />
  </g>

  
  <g>
    
    <rect x="470" y="380" width="8" height="8" fill="#ff4400" />
    <rect x="478" y="368" width="8" height="8" fill="#ff6600" />
    <rect x="486" y="356" width="8" height="8" fill="#ffaa00" />
    <rect x="486" y="348" width="8" height="8" fill="#ffffff" />
    <rect x="494" y="360" width="8" height="8" fill="#ff0000" />
    <rect x="502" y="350" width="8" height="8" fill="#ff4400" />
    <rect x="502" y="342" width="8" height="8" fill="#ffcc00" />
    <rect x="510" y="356" width="8" height="8" fill="#ff8800" />
    <rect x="518" y="360" width="8" height="8" fill="#ff4400" />
    <rect x="526" y="372" width="8" height="8" fill="#ffaa00" />
    
    <rect x="478" y="388" width="56" height="8" fill="#c87840" />
    <rect x="470" y="396" width="72" height="48" fill="#c87840" />
    <rect x="478" y="444" width="56" height="8" fill="#c87840" />
    
    <rect x="484" y="410" width="8" height="8" fill="#1a0800" />
    <rect x="520" y="410" width="8" height="8" fill="#1a0800" />
    
    <rect x="484" y="410" width="24" height="4" fill="#cc2200" opacity="0.8" />
    <rect x="504" y="410" width="24" height="4" fill="#cc2200" opacity="0.8" />
    
    <rect x="462" y="452" width="88" height="80" fill="#6b4400" />
    
    <g fill="#885522">
      <rect x="462" y="524" width="8" height="16" />
      <rect x="474" y="524" width="8" height="20" />
      <rect x="486" y="524" width="8" height="14" />
      <rect x="498" y="524" width="8" height="18" />
      <rect x="510" y="524" width="8" height="16" />
      <rect x="522" y="524" width="8" height="12" />
      <rect x="534" y="524" width="8" height="16" />
      <rect x="546" y="524" width="8" height="20" />
    </g>
    
    <g fill="#4488ff">
      <rect x="470" y="468" width="8" height="8" />
      <rect x="486" y="468" width="8" height="8" />
      <rect x="502" y="468" width="8" height="8" />
      <rect x="518" y="468" width="8" height="8" />
      <rect x="534" y="468" width="8" height="8" />
    </g>
    
    <rect x="430" y="452" width="32" height="16" fill="#c87840" />
    <rect x="422" y="468" width="24" height="48" fill="#c87840" />
    <rect x="550" y="452" width="32" height="16" fill="#c87840" />
    <rect x="558" y="468" width="24" height="48" fill="#c87840" />
    
    <rect x="558" y="512" width="40" height="12" fill="#c87840" />
    
    <rect x="470" y="600" width="32" height="100" fill="#6b4400" />
    <rect x="510" y="600" width="32" height="100" fill="#6b4400" />
    
    <rect x="462" y="692" width="48" height="12" fill="#442200" />
    <rect x="502" y="692" width="48" height="12" fill="#442200" />
    
    <rect x="418" y="468" width="8" height="80" fill="#885533" />
    <rect x="402" y="452" width="24" height="16" fill="#887766" />
    <rect x="394" y="460" width="16" height="16" fill="#aaaaaa" />
  </g>

  
  <g>
    
    <rect x="984" y="370" width="80" height="8" fill="#1a1a1a" />
    <rect x="992" y="362" width="64" height="8" fill="#1a1a1a" />
    <rect x="1000" y="354" width="48" height="8" fill="#1a1a1a" />
    <rect x="992" y="346" width="64" height="16" fill="#222222" />
    <rect x="988" y="378" width="72" height="8" fill="#333333" />
    
    <rect x="996" y="386" width="56" height="8" fill="#e8c89a" />
    <rect x="988" y="394" width="72" height="48" fill="#e8c89a" />
    <rect x="996" y="442" width="56" height="8" fill="#e8c89a" />
    
    <rect x="1000" y="408" width="8" height="8" fill="#1a0800" />
    <rect x="1040" y="408" width="8" height="8" fill="#1a0800" />
    
    <rect x="972" y="450" width="104" height="160" fill="#1a3080" />
    
    <rect x="996" y="450" width="16" height="60" fill="#f5e8c0" />
    <rect x="1036" y="450" width="16" height="60" fill="#f5e8c0" />
    
    <g fill="#ffcc00">
      <rect x="1020" y="460" width="8" height="8" />
      <rect x="1020" y="480" width="8" height="8" />
      <rect x="1020" y="500" width="8" height="8" />
      <rect x="1020" y="520" width="8" height="8" />
    </g>
    
    <rect x="1004" y="442" width="40" height="16" fill="#f5f5f5" />
    
    <rect x="972" y="450" width="24" height="12" fill="#ffcc00" />
    <rect x="1052" y="450" width="24" height="12" fill="#ffcc00" />
    
    <rect x="948" y="450" width="24" height="16" fill="#1a3080" />
    <rect x="940" y="466" width="24" height="48" fill="#1a3080" />
    <rect x="1076" y="450" width="24" height="16" fill="#1a3080" />
    <rect x="1076" y="466" width="24" height="48" fill="#1a3080" />
    
    <rect x="940" y="508" width="16" height="8" fill="#e8c89a" />
    <rect x="920" y="510" width="24" height="8" fill="#e8c89a" />
    
    <rect x="984" y="610" width="36" height="80" fill="#1a3080" />
    <rect x="1028" y="610" width="36" height="80" fill="#1a3080" />
    
    <rect x="984" y="680" width="36" height="24" fill="#f5f5f5" />
    <rect x="1028" y="680" width="36" height="24" fill="#f5f5f5" />
    
    <rect x="980" y="696" width="44" height="12" fill="#1a0800" />
    <rect x="1024" y="696" width="44" height="12" fill="#1a0800" />
    
    <rect x="1080" y="520" width="6" height="90" fill="#aaaaaa" />
    <rect x="1074" y="518" width="18" height="8" fill="#ccaa00" />
  </g>

  
  <g opacity="0.85">
    <rect x="280" y="400" width="8" height="8" fill="#ff0000" />
    <rect x="288" y="388" width="8" height="8" fill="#ffffff" />
    <rect x="296" y="392" width="8" height="8" fill="#ff4400" />
    <rect x="292" y="410" width="56" height="48" fill="#a06030" />
    <rect x="300" y="408" width="8" height="8" fill="#1a0800" />
    <rect x="330" y="408" width="8" height="8" fill="#1a0800" />
    <rect x="292" y="458" width="56" height="80" fill="#8b4400" />
    <rect x="292" y="538" width="24" height="100" fill="#4a2200" />
    <rect x="324" y="538" width="24" height="100" fill="#4a2200" />
    <rect x="286" y="630" width="36" height="12" fill="#2a1200" />
    <rect x="318" y="630" width="36" height="12" fill="#2a1200" />
    <rect x="250" y="460" width="42" height="12" fill="#a06030" />
    <rect x="242" y="472" width="30" height="36" fill="#a06030" />
    
    <rect x="214" y="480" width="40" height="6" fill="#885533" />
    <rect x="210" y="470" width="10" height="16" fill="#665522" />
  </g>

  
  <g opacity="0.85">
    <rect x="1200" y="370" width="64" height="24" fill="#222222" />
    <rect x="1204" y="386" width="56" height="48" fill="#d8b880" />
    <rect x="1208" y="402" width="8" height="8" fill="#1a0800" />
    <rect x="1240" y="402" width="8" height="8" fill="#1a0800" />
    <rect x="1188" y="434" width="88" height="150" fill="#8b1a1a" />
    <rect x="1196" y="432" width="16" height="50" fill="#f5e8c0" />
    <rect x="1252" y="432" width="16" height="50" fill="#f5e8c0" />
    <g fill="#ffcc00">
      <rect x="1216" y="444" width="8" height="8" />
      <rect x="1216" y="462" width="8" height="8" />
      <rect x="1216" y="480" width="8" height="8" />
    </g>
    <rect x="1196" y="584" width="32" height="100" fill="#8b1a1a" />
    <rect x="1236" y="584" width="32" height="100" fill="#8b1a1a" />
    <rect x="1192" y="678" width="44" height="12" fill="#1a0800" />
    <rect x="1232" y="678" width="44" height="12" fill="#1a0800" />
  </g>

  
  <g>
    
    <rect x="700" y="710" width="60" height="8" fill="#442200" />
    <rect x="720" y="706" width="60" height="8" fill="#331a00" />
    
    <rect x="722" y="694" width="8" height="16" fill="#ff4400" filter="url(#glow)" />
    <rect x="730" y="686" width="8" height="24" fill="#ff6600" filter="url(#glow)" />
    <rect x="738" y="678" width="8" height="32" fill="#ffaa00" filter="url(#glow)" />
    <rect x="746" y="682" width="8" height="28" fill="#ff8800" filter="url(#glow)" />
    <rect x="754" y="690" width="8" height="20" fill="#ff4400" filter="url(#glow)" />
    <rect x="762" y="698" width="8" height="12" fill="#ff2200" filter="url(#glow)" />
    
    <rect x="730" y="694" width="8" height="16" fill="#ffdd00" />
    <rect x="738" y="686" width="8" height="24" fill="#ffee44" />
    <rect x="746" y="690" width="8" height="20" fill="#ffdd00" />
  </g>

  
  <g>
    <rect x="0" y="780" width="1536" height="20" fill="#6633aa" opacity="0.6" />
    
    <g fill="#aa44ff" opacity="0.7">
      <rect x="0" y="782" width="12" height="16" />
      <rect x="16" y="782" width="12" height="16" />
      <rect x="32" y="782" width="12" height="16" />
    </g>
  </g>

  
  <g fill="#ffcc00" opacity="0.6">
    
    <rect x="0" y="0" width="1536" height="12" />
    <rect x="0" y="12" width="12" height="4" />
    <rect x="16" y="12" width="12" height="4" />
    
    <rect x="0" y="1012" width="1536" height="12" />
    
    <rect x="0" y="12" width="12" height="1000" />
    
    <rect x="1524" y="12" width="12" height="1000" />
  </g>
  
  <g fill="none" stroke="#ffcc00" stroke-width="4" opacity="0.3">
    <rect x="20" y="20" width="1496" height="984" />
  </g>

  
  <rect x="0" y="800" width="1536" height="224" fill="#0a0018" opacity="0.85" />
  <rect x="0" y="800" width="1536" height="4" fill="#ffcc00" opacity="0.8" />

  
  <g filter="url(#textGlow)">
    <text x="768" y="864" font-family="'Courier New', Courier, monospace" font-size="54" font-weight="bold" fill="#ffee44" text-anchor="middle" letter-spacing="2">TREATY OF ALLIANCE</text>
    <text x="768" y="930" font-family="'Courier New', Courier, monospace" font-size="46" font-weight="bold" fill="#ffee44" text-anchor="middle" letter-spacing="2">WITH THE DELAWARE NATION</text>
    <text x="768" y="988" font-family="'Courier New', Courier, monospace" font-size="34" font-weight="bold" fill="#88bbff" text-anchor="middle" letter-spacing="4">FORT PITT  ✦  SEPTEMBER 17, 1778</text>
  </g>

  
  <g fill="#ffcc00" opacity="0.5">
    <rect x="200" y="943" width="40" height="4" />
    <rect x="248" y="943" width="8" height="4" />
    <rect x="264" y="943" width="8" height="4" />
    <rect x="1280" y="943" width="40" height="4" />
    <rect x="1272" y="943" width="8" height="4" />
    <rect x="1256" y="943" width="8" height="4" />
  </g>

  
  <g filter="url(#glow)">
    <rect x="40" y="40" width="200" height="80" fill="#cc2200" />
    <rect x="40" y="40" width="200" height="8" fill="#ff4400" />
    <rect x="40" y="112" width="200" height="8" fill="#881500" />
    <rect x="40" y="40" width="8" height="80" fill="#ff4400" />
    <rect x="232" y="40" width="8" height="80" fill="#881500" />
    <text x="140" y="78" font-family="'Courier New', Courier, monospace" font-size="18" font-weight="bold" fill="#ffee44" text-anchor="middle">★ HISTORIC ★</text>
    <text x="140" y="104" font-family="'Courier New', Courier, monospace" font-size="14" font-weight="bold" fill="#ffffff" text-anchor="middle">FIRST U.S. TREATY</text>
  </g>

  
  <g filter="url(#glow)">
    <rect x="1296" y="40" width="200" height="80" fill="#1a3080" />
    <rect x="1296" y="40" width="200" height="8" fill="#2244cc" />
    <rect x="1296" y="112" width="200" height="8" fill="#0a1a50" />
    <rect x="1296" y="40" width="8" height="80" fill="#2244cc" />
    <rect x="1488" y="40" width="8" height="80" fill="#0a1a50" />
    <text x="1396" y="92" font-family="'Courier New', Courier, monospace" font-size="40" font-weight="bold" fill="#ffee44" text-anchor="middle">1778</text>
  </g>

  
  <rect width="1536" height="1024" fill="url(#scanlines)" opacity="0.5" />

  
  <rect width="1536" height="1024" fill="url(#crtGlow)" />

  
  <g opacity="0.04" fill="#ffffff">
    <rect x="0" y="0" width="4" height="4" />
    <rect x="100" y="50" width="4" height="4" />
    <rect x="200" y="150" width="4" height="4" />
    <rect x="400" y="80" width="4" height="4" />
    <rect x="600" y="200" width="4" height="4" />
    <rect x="800" y="100" width="4" height="4" />
    <rect x="1000" y="300" width="4" height="4" />
    <rect x="1200" y="180" width="4" height="4" />
    <rect x="1400" y="250" width="4" height="4" />
    <rect x="50" y="300" width="4" height="4" />
    <rect x="350" y="400" width="4" height="4" />
    <rect x="700" y="500" width="4" height="4" />
    <rect x="1100" y="450" width="4" height="4" />
    <rect x="1450" y="600" width="4" height="4" />
  </g>
</svg>